<?xml version="1.0" encoding="UTF-8"?>
<svg width="443px" height="94px" viewBox="0 0 443 94" version="1.1" xmlns="http://www.w3.org/2000/svg" xmlns:xlink="http://www.w3.org/1999/xlink">
    <!-- Generator: Sketch 52.3 (67297) - http://www.bohemiancoding.com/sketch -->
    <title>Group</title>
    <desc>Created with Sketch.</desc>
    <g id="Page-1" stroke="none" stroke-width="1" fill="none" fill-rule="evenodd">
        <g id="兰州大学财务处2" transform="translate(-360.000000, -13.000000)">
            <g id="Group" transform="translate(360.000000, 13.000000)">
                <path d="M312.5,31.1996842 L312.5,67.1996842" id="Line" stroke="#FFFFFF" stroke-linecap="square"></path>
                <g id="ld" fill="#FFFFFF">
                    <path d="M78.4280713,20.6212033 C78.1962126,20.8728333 77.869616,21.1992049 77.6452366,21.5704214 C77.5903883,21.6601113 77.3834606,21.7697323 77.3809675,21.8893188 C77.3660089,22.1683541 77.6053469,21.9715346 77.8546573,21.7821892 C78.1189264,21.5853697 78.2485678,21.5131195 78.3532782,21.3711105 C78.4081265,21.283912 78.5826438,21.1792738 78.612561,21.0821097 C78.6998196,20.8230056 78.5976024,20.4218924 78.4280713,20.6212033 Z M75.239391,24.0867214 C75.0873117,24.0069971 74.9152875,23.8649881 74.7706875,23.7777896 C74.5512943,23.6631858 74.3668046,23.6009011 74.2496287,23.4788232 C74.0875769,23.3193745 74.3742839,23.2720382 73.9828665,23.1150808 C73.8382665,23.122555 73.8108424,23.2296846 73.7958837,23.4314869 C73.7809251,23.6382719 73.7285699,23.9696263 73.7634734,24.2187649 C73.7809251,24.3757222 73.7634734,24.4778691 73.8058561,24.5775245 C73.8382665,24.6522661 73.9354976,24.7469388 73.9429769,24.7793268 C74.0925631,24.9238272 74.2471356,25.0135171 74.4565563,25.0882587 C74.641046,25.1505433 74.8504668,25.1904055 75.0349565,25.2551816 L75.7155739,25.4146303 C75.860174,25.4569838 75.9225016,25.5616221 75.9025568,25.7210708 C75.8177912,25.8406573 75.718067,26.0075802 75.7355188,26.1919428 C75.5360704,26.4585211 75.2992255,26.548211 75.1022703,26.7101511 C74.9850944,26.8073151 74.9252599,26.7649616 74.8355082,26.754996 C74.6435391,26.7300822 74.4640356,26.5930559 74.3094632,26.4510469 C74.2396563,26.3862709 74.1424252,26.2442619 74.0676321,26.1819772 C73.9679079,26.109727 73.8856355,26.1172012 73.8208148,26.0125629 C73.4767664,25.4918632 73.3870146,25.5616221 73.3845215,25.6687517 C73.4817526,26.0250199 73.7634734,26.2367877 73.8831424,26.5781076 C73.9330045,26.6827458 73.9280182,26.8147893 73.9180458,26.9966605 C73.9155527,27.1635834 73.9130596,27.380334 73.9030872,27.587119 C73.9330045,27.7116883 74.0277424,27.8213093 74.1199873,27.9259475 C74.2296839,28.0455341 74.3493529,28.1576464 74.5363357,28.1775775 C74.6260874,28.1875431 74.6385529,28.1202756 74.7731806,28.0978532 C74.9377254,28.1800689 75.1870359,28.2548105 75.4213877,28.1775775 C75.5111394,28.1476809 75.5435498,28.0554996 75.6507532,27.9907236 C75.7280395,28.0031805 75.8576809,27.9259475 75.9050499,27.8811026 C76.0546361,27.7415849 76.0471568,27.6494037 76.2241672,27.44511 C76.3687672,27.2856613 76.5557501,26.9119534 76.7153087,26.7026769 C76.8274984,26.5606679 76.9322088,26.535754 76.9646191,26.5407368 C77.1590813,26.5756162 77.3261192,26.6403923 77.53554,26.6403923 C77.6377573,26.6379009 77.7649056,26.6354095 77.8820815,26.5581765 C77.9119987,26.4186589 77.9095056,26.2243308 78.0067367,26.0897959 C78.1413643,25.9104161 78.0491195,25.7634243 77.9793125,25.6313809 C77.941916,25.5566393 77.8646297,25.5167771 77.7848504,25.4370527 C77.727509,25.3847336 77.7250159,25.2850782 77.655209,25.2402332 C77.4457882,25.1056984 77.2288882,25.1904055 76.8997984,24.9238272 C76.4360811,24.5625762 75.7828878,24.3582825 75.239391,24.0867214 Z M81.8211861,23.1773655 C81.7663378,23.0303737 81.5220136,23.0677445 81.3325377,23.1076067 C81.1679928,23.1375033 80.9909824,23.0627617 80.838903,23.1200636 C80.7117547,23.1624172 80.7541375,23.2197191 80.6843306,23.3044262 C80.6195099,23.3791678 80.7117547,23.4115558 80.7117547,23.5112112 C80.7067685,23.6631858 80.6444409,23.8699708 80.6269892,24.0169626 C80.6294823,24.1465147 80.6643857,24.1465147 80.7541375,24.1963424 C80.8787927,24.2586271 81.0558031,24.3607739 81.2228411,24.4155844 C81.2751963,24.4305327 81.3848928,24.4504638 81.4272756,24.4728863 C81.4646722,24.4604294 81.5469446,24.4155844 81.5768619,24.3981447 C81.7015171,24.3333687 81.7788033,24.3234031 81.9682792,24.238696 C82.0256206,24.2212563 82.0754827,24.2586271 82.1328241,24.2287305 C82.1876724,24.2013252 82.2425207,24.096687 82.297369,24.0742645 C82.4145449,23.7977206 81.9483344,23.5037371 81.8211861,23.1773655 Z M80.2904201,20.484177 C79.9987269,20.6436258 79.8042648,20.9326266 79.5075854,21.1169891 C79.3006578,21.4034985 78.9665818,21.6202491 78.637492,21.9017758 C78.5128368,22.0014312 78.4704541,22.1608799 78.3956609,22.2754837 C78.3457989,22.3477339 78.133885,22.4822688 78.108954,22.5296051 C78.0341608,22.7114763 78.2361023,22.7787437 78.4405368,22.7214418 C78.4953851,22.7040021 78.6424783,22.8086403 78.684861,22.8235887 C78.9391576,23.0328651 79.3480267,22.9581235 79.7095268,23.2271932 C79.9139614,23.3119003 79.7095268,23.7478929 79.9189476,23.8475484 C80.0610545,23.8998675 80.1258752,23.8575139 80.2231063,23.9347469 C80.3128581,24.0045057 80.3502546,24.1166181 80.3776788,24.2536443 C80.4026098,24.3931619 80.4200615,24.5501193 80.3053787,24.7195335 C80.0610545,24.8665253 79.7743475,24.709568 79.5549544,24.774344 C79.425313,24.6821627 79.3679716,24.555102 79.2383302,24.4629208 C79.0463611,24.3283859 78.7721197,24.1838855 78.5751644,24.0543334 C78.3183747,23.8799364 78.0541057,23.6980652 77.7948228,23.5411079 C77.7125504,23.4912801 77.630278,23.4613835 77.5554848,23.4090644 C77.1640675,23.1449775 76.8499363,22.8958389 76.458519,22.619295 C76.2889879,22.4972171 76.1493741,22.5171482 76.0770741,22.6790883 C76.0546361,22.8136231 75.9374602,23.2222104 76.0297051,23.4040816 C76.1543603,23.6432547 76.5956397,23.7229791 76.7178018,23.9671349 C77.129164,24.4429897 77.749947,24.3009807 78.228623,24.4853432 C78.2934437,24.5077657 78.3383195,24.5825073 78.4056334,24.6124039 C78.5427541,24.6921283 78.7297369,24.8142062 78.9615956,24.8291545 C79.4402716,24.851577 79.7793338,24.9836205 79.5674199,25.3847336 C79.330575,25.5989928 78.899268,25.1704744 78.7945576,25.3075007 C78.7247507,25.4395441 78.8319542,25.4893719 78.9491301,25.6612775 C79.0837577,25.8431487 79.1610439,26.1022528 79.3654785,26.2068911 C79.4726819,26.2641929 79.6322406,26.3190034 79.7319648,26.3190034 C79.8017717,26.3140207 79.8291958,26.2467532 79.8665924,26.2592102 C79.9164545,26.2068911 79.9363993,26.1147098 79.9713028,26.0524251 C80.0535752,25.9203817 80.1233821,25.8157434 80.1333546,25.6986483 C80.1383408,25.6239067 80.2031615,25.5367082 80.2231063,25.4744235 C80.2854339,25.2352505 80.3028856,25.0683276 80.3552408,25.0209913 C80.3951305,24.9861118 80.4449926,24.9661808 80.5197857,25.0110257 C80.7017823,25.135595 80.6893168,25.5342168 80.9286548,25.290061 C81.0907066,25.1256295 81.1206238,24.8739995 81.220348,24.664723 C81.6965309,24.7569043 82.1951517,24.7668699 82.7735519,24.7444474 C83.087683,24.7569043 83.3444727,24.8092234 83.4766073,24.7394646 C83.5638659,24.6946197 83.5588797,24.6348264 83.5838107,24.5501193 C83.6187142,24.4504638 83.6760556,24.3283859 83.6785487,24.2561357 C83.6810418,24.1116353 83.6935073,24.051842 83.5489073,23.9173072 C83.421759,23.7977206 83.1749417,23.7578585 82.9979313,23.6806255 C82.9106726,23.6432547 82.8408657,23.5560562 82.7561001,23.516194 C82.6115001,23.4289955 82.4594208,23.3916247 82.3247931,23.3218659 C82.2799173,23.2346674 82.2849035,23.0876756 82.3596966,23.0029685 C82.4220242,22.9282269 82.4993104,22.9257355 82.584076,22.8759078 C82.6862932,22.8186059 82.7860174,22.7164591 82.7710588,22.684071 C82.8284002,22.542062 82.5666242,22.4972171 82.7162105,22.1957593 L82.9056864,22.0188709 C83.0802037,21.9491121 83.2472417,21.8494567 83.3120624,21.709939 C83.3669107,21.5754042 83.3120624,21.3985158 83.30209,21.2440498 C83.2995969,21.0995494 83.3569383,20.8827988 83.2597072,20.81304 C83.159983,20.7407898 82.9231381,21.0472303 82.7211967,21.1269547 C82.489338,21.2141532 82.1951517,21.2291015 81.8810206,21.2614895 C81.8411309,21.2091704 81.8112137,21.1493772 81.7763102,21.1070236 C81.5120412,20.8055659 81.531986,20.9176782 81.507055,21.2614895 C81.4796308,21.600318 81.4995756,21.56793 81.1530342,21.6202491 C81.0857203,21.6277233 80.9909824,21.6376888 80.9386272,21.6501458 C80.7641099,21.6750596 80.6618926,21.6949907 80.7217271,21.7747151 C80.7591237,21.81956 80.8114789,21.8345083 81.0184065,21.929181 C81.1530342,21.9864829 81.3026204,21.9914657 81.437248,22.0512589 C81.4746446,22.0662073 81.5245067,22.0338192 81.5494377,22.0462762 C81.6192446,22.07119 81.6242309,22.1235091 81.6317102,22.1683541 C81.6391895,22.2281474 81.6591343,22.3651736 81.6017929,22.4349324 C81.556917,22.4897429 81.4746446,22.5071826 81.3898791,22.5370792 C81.3100997,22.5619931 81.2328135,22.6018553 81.1505411,22.6068381 C80.8688203,22.6342433 80.5771271,22.7089849 80.2754615,22.7563212 C79.85662,22.5769414 80.3028856,22.290432 79.9538511,22.225656 C79.8491407,22.2929234 79.881551,22.6741055 79.7170062,22.8310628 C79.2956715,22.9157699 78.7546679,22.8659422 78.7147783,22.7239332 C78.6923403,22.6765969 78.6773817,22.6068381 78.7222576,22.5445534 C78.8319542,22.3875961 79.1012094,22.1907766 79.1012094,21.9839915 C79.5001061,21.6227405 79.497613,21.535542 79.7120199,21.3212828 C79.9089752,21.1169891 80.0785063,20.9974026 80.2779546,20.7706865 C80.3701994,20.6162205 80.382665,20.5041081 80.2904201,20.484177 Z M62.1406217,13.6004771 C62.028432,13.5830374 62.0683217,13.6951497 62.0832803,14.0464352 C62.0957458,14.1535648 62.0658286,14.2407633 62.0583492,14.3503843 C62.0408975,14.664299 61.9960216,14.9782136 61.9461596,15.2871455 C61.883832,15.6085343 61.8414492,15.9249404 61.6993422,16.2263981 C61.6320284,16.3733899 61.5323043,16.4730453 61.8339699,16.6374768 C61.9636113,16.7047442 62.0733079,16.6200371 62.2528114,16.5751922 C62.3375769,16.5502783 62.41237,16.6200371 62.5170804,16.6075802 C62.6168046,16.6025974 62.7564184,16.5203817 62.8337046,16.5153989 C62.9483874,16.4979592 62.9783047,16.5303472 63.0356461,16.4780281 C63.1578082,16.3783726 63.1652875,16.1591307 63.1603013,15.9498542 C63.152822,15.7854227 63.1503289,15.6434137 63.1129323,15.4615425 C63.0929875,15.3544129 62.9783047,15.3245163 62.9583599,15.2198781 C62.8835667,14.8935065 62.8636219,14.6543334 62.7140356,14.4276173 C62.6766391,14.3802809 62.6168046,14.3404188 62.579408,14.2681686 C62.4447804,13.9941161 62.4622321,13.6503048 62.1406217,13.6004771 Z M63.2824634,8.9864299 C63.2575324,8.94158495 63.1976979,8.65756692 63.0755358,8.40095415 C62.9957564,8.22655712 62.8810736,8.07209117 62.7813495,7.8877286 C62.674146,7.67845216 62.5918735,7.45173602 62.4622321,7.33214948 C62.3749735,7.25242513 62.2877148,7.33962364 62.1780182,7.34460641 C62.0209527,7.35208057 61.8688733,7.39194275 61.836463,7.70336602 C61.8589009,7.97243573 61.8888182,8.17174662 61.8539147,8.39846276 C61.7442181,9.07362841 61.3602801,9.64664723 60.8666454,10.3018818 C60.6746764,10.560986 60.5151178,10.7528227 60.4403246,10.7702624 C60.0289624,10.7503313 59.4356036,10.8151073 59.0217484,10.8175987 C58.485731,10.8275643 58.0718757,10.735383 57.5832272,10.6880466 C57.4660513,10.6730983 57.3463823,10.7179433 57.2217271,10.702995 L56.9499788,10.5684601 C56.7978994,10.4214683 56.5785063,10.3990459 56.4463717,10.4812616 C56.3541269,10.5360721 56.2394441,10.6880466 56.309251,10.8499867 C56.548589,11.0791943 56.8028856,12.4345083 57.5707617,12.058309 C58.1890516,11.7643255 58.7051241,11.9536708 59.5303416,11.7917307 C59.6400382,11.7867479 59.7671865,11.8664723 59.7048589,12.1305592 C59.6500106,12.1953353 59.6101209,12.1878611 59.5652451,12.2351975 C59.2511139,12.5690432 59.0990346,12.5790087 58.844738,12.7235091 C58.5430724,12.8979062 58.2987481,12.8729923 57.9995756,13.044898 C57.458572,13.2790883 56.9200615,13.3164591 56.4563442,13.3637954 C56.2045406,13.3862179 56.0200509,13.4485025 55.7682474,13.4684336 C55.518937,13.4808905 55.2596541,13.4759078 54.9953851,13.5132786 C55.0028644,13.7399947 55.4541163,13.6976411 55.9427647,13.8271932 C56.069913,13.8595812 56.1845958,13.909409 56.3167303,13.92934 C56.523658,13.9617281 56.7355718,13.9567453 56.8976236,14.0539094 C57.1170168,14.1859528 57.3239444,14.1585476 57.4934755,14.2108667 C57.6106514,14.2557116 57.7652238,14.3204877 57.8848928,14.3080307 C57.9995756,14.2930824 58.0818481,14.2108667 58.223955,14.1859528 C58.4533206,14.1386165 58.6901655,14.0215213 58.9469552,13.9841505 C59.1040208,13.9592367 59.2910036,14.0140472 59.4331105,13.9766764 C59.6549968,13.8670554 59.8345003,13.6029685 60.0464142,13.3588126 C60.1586039,13.2292605 60.2658073,12.8979062 60.3829832,12.7534058 C60.4453108,12.6736814 60.5649798,12.6263451 60.6148419,12.5590777 C60.6996075,12.4519481 60.7095799,12.3248874 60.8167834,12.2302147 C60.8641523,12.1853697 61.0012731,12.1778956 61.0486421,12.1255765 C61.2904732,12.0433607 61.4026628,11.9661277 61.5622215,11.819136 C61.6893698,11.6995494 61.8564078,11.5002385 62.075801,11.4354625 C62.2627838,11.3906175 62.4921494,11.2909621 62.6891046,11.2436258 C62.8436771,11.2037636 62.9733185,11.2137291 63.0880013,11.1688842 C63.1752599,11.1340048 63.2450668,11.0243838 63.3722151,10.9371853 C63.4619669,10.8798834 63.6140463,10.8923403 63.6888394,10.8051418 C63.7910567,10.7553141 63.8783153,10.7852107 63.9880119,10.7652796 C64.1251326,10.7378744 64.2846913,10.6730983 64.4243051,10.702995 C64.5938362,10.735383 64.5489603,10.6805725 64.4841396,10.5236152 C64.3993741,10.3267957 64.3220878,10.2296316 64.2672396,10.1798039 C64.2173775,10.1449245 64.1849671,10.1200106 64.1375981,10.1847866 C64.1076809,10.2246488 64.1226395,10.3243043 64.0827498,10.4015372 C64.0403671,10.4663133 63.9580946,10.4762788 63.9057394,10.5759343 C63.8010291,10.5908826 63.6290049,10.580917 63.5467324,10.6008481 C63.4345428,10.6332362 63.4096117,10.7005036 63.2874496,10.7254174 C63.0555909,10.7702624 62.7863357,10.7802279 62.554477,10.812616 C62.4273287,10.8275643 62.3251114,10.7752452 62.1879907,10.7976676 C62.1331424,10.7478399 62.0907596,10.735383 62.0957458,10.6780811 C62.0932527,10.5834084 62.1755251,10.4463822 62.2378527,10.3367612 C62.3026735,10.232123 62.3550286,10.1200106 62.3774666,10.0203552 C62.4622321,10.012881 62.5220666,9.95059634 62.6292701,9.87585476 C62.7165288,9.81606149 62.8511564,9.75875961 62.9259495,9.65910416 C62.9882771,9.56941426 63.0132081,9.4174397 63.0705495,9.33273257 C63.1677806,9.17079247 63.2924358,9.0761198 63.2824634,8.9864299 Z M30.8496711,11.5351179 C30.8372056,11.7045322 31.0541057,11.7518685 31.0989815,11.8988603 C31.061585,12.1654386 30.8646297,12.2949907 31.0192022,12.67119 C31.1638022,13.0125099 31.3183747,13.1644845 31.4654679,13.2491916 C31.5701782,13.3064935 31.6898472,13.3637954 31.7895714,13.328916 C31.8892956,13.2915452 31.9366645,13.1694673 32.0114577,13.0399152 C32.0588266,12.9626822 32.1410991,12.8954148 32.1784957,12.8107077 C32.2084129,12.6662073 32.0962232,12.4145773 32.0264163,12.1479989 C31.9815404,11.9810761 31.971568,11.7992049 31.9740611,11.6422475 L32.1535646,11.271031 C32.2732336,11.1240392 32.475175,11.0268752 32.7095268,11.5376093 C32.9164545,12.0383779 32.8466476,12.4668964 32.8142372,12.9153459 C32.7244855,13.3089849 32.6696372,13.7923138 32.3230957,14.0788232 C32.2258646,14.1560562 32.2133991,14.2307978 32.2133991,14.3478929 C32.2557819,14.4899019 32.3255888,14.5920488 32.3929026,14.6892128 C32.497613,14.8536443 32.6322406,14.9657567 32.92892,15.0280413 C32.9887545,15.0305327 33.1308614,14.9657567 33.3178443,14.7888683 C33.4051029,14.7091439 33.5447167,14.6344023 33.6294823,14.4899019 C33.6793444,14.400212 33.6818375,14.2482375 33.6992892,14.1211768 C33.8264375,13.909409 33.8314237,13.4783992 33.7815616,12.9477339 C33.7566306,12.6537503 33.7441651,12.3149218 33.6519202,11.9885502 C33.6269892,11.4504108 33.7341927,11.8415584 34.1380755,11.567506 C34.2826756,11.3756692 34.2303204,10.8923403 34.3674411,10.5834084 C34.4397411,10.483753 34.5619032,10.4538563 34.6117653,10.5684601 C34.6167515,10.8225815 34.5344791,11.0617546 34.5095481,11.3133846 C34.484617,11.599894 34.5195205,11.9511794 34.5444515,12.2476544 C34.5668895,12.4768619 34.5743688,12.638802 34.6541481,12.8630268 C34.843624,13.5182613 34.8411309,13.7350119 35.1876724,13.6154254 C35.2549862,13.5830374 35.3547104,13.5780546 35.4245173,13.5157699 C35.584076,13.4335542 35.5242415,13.2043467 35.6139932,12.8804665 C35.6937725,12.5889743 35.6015277,12.4893188 35.5691173,12.3149218 C35.536707,12.1255765 35.4270104,11.9536708 35.3721621,11.7817652 C35.2948759,11.5301352 35.2076172,11.3507554 35.2400276,11.1987808 C35.3023552,10.9620991 35.1826862,10.7627882 35.1926586,10.5584946 C35.1951517,10.374132 35.2699448,10.2171747 35.2774241,10.0402862 C35.3422449,9.92319109 35.5067897,9.82602703 35.5416932,10.0627087 C35.4693932,10.6357275 35.609007,11.0119268 36.1525037,11.0617546 C36.2946107,11.0717201 36.421759,11.0692287 36.4840866,10.8898489 C36.5065245,10.8225815 36.5339487,10.7154519 36.5314555,10.5883912 C36.5289624,10.4812616 36.4766073,10.3517095 36.4840866,10.2470713 L36.1500106,9.95557911 C36.1674623,9.69398357 36.1225865,9.46726743 36.2098451,9.17826663 C36.2721727,8.88179168 36.37439,8.81203287 36.4641417,8.78961039 C36.566359,8.7522396 36.6536177,8.83694673 36.710959,9.02878346 C36.7658073,9.24802544 36.6960004,9.53453485 36.6935073,9.73135436 C36.710959,9.84595812 36.6586039,9.99294991 36.6835349,10.1075537 C36.7009866,10.2420885 36.7757798,10.3691492 36.7932315,10.4962099 C36.853066,10.7802279 36.8730108,11.0767029 36.9303522,11.3532468 C36.9901867,11.6372648 37.0774454,11.9013517 37.1298006,12.1828783 C37.2719075,12.561569 36.9777212,12.813199 37.0874178,12.9751391 C37.0699661,13.0199841 37.2270316,13.000053 37.3890834,13.0822688 C37.5262041,13.1495362 37.6633248,13.3164591 37.7755145,13.2940366 C38.2467112,13.3189504 38.2018353,12.6587331 38.4710906,12.5167241 C38.7577976,12.2526372 38.5807872,11.5151869 38.1170698,11.1863239 C38.0796732,11.1639014 38.1046043,11.084177 38.0697008,11.0418235 C38.2043285,10.4663133 37.8552939,10.0851312 37.7406111,9.60678505 C37.7306387,9.36512059 37.665818,9.15584416 37.6334076,8.91916247 C37.6109697,8.81950702 37.5685869,8.72234296 37.5910248,8.58780811 C37.7007214,8.34365227 37.7929663,8.01977206 37.7879801,7.82544394 C37.7904732,7.39443414 37.3616592,7.53893453 37.1273074,7.30723562 C37.1148419,7.30723562 37.1073626,7.29976146 37.0998833,7.28481315 C36.9478039,7.33464087 36.7533418,7.36204612 36.6212073,7.46170156 C36.5364418,7.52896899 36.4865797,7.68094355 36.4167728,7.77810761 C36.2971038,7.95499602 36.1874072,8.10946197 36.1200934,8.34116088 C36.0602589,8.535489 35.9954381,8.74974821 36.0328347,8.97895574 C36.015383,8.98892128 35.9356036,9.06117148 35.9031933,9.16830109 C35.848345,9.32276703 35.8159346,9.53453485 35.6987588,9.61425921 C35.584076,9.6890008 35.4544345,9.62671614 35.344738,9.54948317 C35.2524931,9.49467267 35.1727138,9.43487941 35.1727138,9.36013782 C35.1602482,8.9864299 35.0006896,9.05120594 34.7738171,9.06615425 C34.6691067,9.07362841 34.5544239,9.03376623 34.4322618,9.08608534 C34.005941,9.28041346 34.2303204,9.61924198 34.12561,9.8858203 L33.7441651,10.65815 C33.574634,10.9670819 33.3851581,10.8275643 33.3477615,10.5584946 C33.1757373,10.40652 33.3377891,9.92817387 32.834182,10.0876226 C32.7568958,10.090114 32.5200509,10.1249934 32.330575,10.2719852 C32.1710163,10.40652 32.0488542,10.6307448 32.0638129,11.1165651 C32.018937,11.3308243 31.9291852,11.4877816 31.8444197,11.5525576 C31.5527265,11.7842566 31.0964884,11.2162205 30.8496711,11.5351179 Z M11.9943242,22.9307183 C12.0242415,22.8460111 12.1464036,22.9157699 12.0990346,23.0029685 C11.9544345,23.232176 11.9494483,23.6806255 11.8821345,23.8101776 C11.8297793,23.7728068 11.9619139,23.1449775 11.9943242,22.9307183 Z M11.5954275,18.5558442 C11.5854551,18.4935595 12.0965415,18.3415849 12.3034691,18.6729393 C12.5328347,18.6978532 12.5428071,18.8822157 13.0065245,18.613146 C13.161097,18.6978532 12.9566624,18.8348794 12.9491831,18.942009 C12.8569383,19.3182083 12.5502864,19.5324675 12.5527795,19.9784257 C12.5577658,20.2474954 12.4480692,20.4866684 12.4530554,20.8105486 C12.3707829,21.4209382 12.468014,21.9690432 12.4754933,22.5495362 C12.4630278,22.7264246 12.373276,22.7015107 12.348345,22.5918897 C12.2087312,22.3078717 12.3259071,22.0188709 12.2311691,21.8170686 C12.1663484,21.470766 12.0716104,21.1194805 11.9918311,20.7756692 C11.8198069,20.0232706 11.6602482,19.2883117 11.5954275,18.5558442 Z M9.87518566,21.9017758 C9.96743051,22.0886297 10.1693719,22.0985953 10.3688203,22.2430957 C10.4461065,22.2979062 10.5657755,22.3128545 10.6505411,22.3950702 C10.6530342,22.4598463 10.672979,22.542062 10.672979,22.6093294 C10.6704859,22.7563212 10.6380755,22.8858733 10.6206238,23.0179168 C10.5907066,23.2097535 10.5607893,23.438961 10.5358583,23.6158495 C10.505941,23.8301087 10.3713134,23.9621521 10.3413961,24.1465147 C10.3164651,24.2860323 10.3688203,24.2561357 10.5159134,24.238696 C11.2264481,24.1415319 11.438362,24.3657567 11.5380861,24.1465147 C11.4957034,23.6307978 11.630331,23.3143917 11.5704965,22.9581235 C11.6004137,22.8634508 11.5854551,22.6765969 11.6826862,22.6865624 C11.8247931,22.6616486 11.8322724,22.5171482 11.7724379,22.3178373 C11.7400276,22.1957593 11.6502758,22.0662073 11.6876724,21.9341638 C11.7649586,21.7273787 11.5405792,21.6675855 11.1292171,21.6576199 C10.9073308,21.5131195 10.6954169,21.5479989 10.4909824,21.6675855 C10.4635582,21.7697323 10.3762996,21.7124304 10.3114789,21.7024649 C10.1569064,21.6700769 9.99485466,21.6476544 9.87518566,21.9017758 Z M14.8414492,28.3395176 C14.5622215,28.5313544 14.3777318,28.2049828 14.1782835,27.8686456 C14.0536283,27.6494037 13.8716317,27.4201961 13.8242627,27.3454545 C13.9190006,27.0539624 13.3555591,26.8048237 13.2982177,26.3015637 C13.3206556,26.1396236 13.4876936,26.1994169 13.5225971,26.284124 C13.8142903,26.6777631 14.2082007,26.9343758 14.5472629,27.2557646 L15.1904838,27.5273257 C16.1029599,28.1875431 15.3001804,28.2822157 14.8414492,28.3395176 Z M16.9057394,23.8899019 C16.8907808,23.909833 16.8533843,23.7927379 16.9406429,23.7503843 C16.9979843,23.7204877 17.037874,23.690591 17.0902292,23.6831169 C17.2123913,23.6656772 17.3594844,23.6357805 17.4641948,23.6457461 L18.2495226,23.7055394 C18.3941226,23.7155049 18.78554,23.9173072 18.8029917,24.0344023 C18.8254297,24.2162735 18.9725228,24.3632653 18.7955124,24.6223695 C18.6833227,24.7917837 18.5811055,24.8914392 18.4040951,24.7569043 C18.2993847,24.67718 18.1248674,24.664723 18.0376087,24.5874901 C17.7384362,24.3234031 17.1625292,24.0892128 16.9057394,23.8899019 Z M47,15.2572489 C64.4841396,15.2572489 78.7422024,29.5154519 78.7422024,47 C78.7422024,64.4845481 64.4841396,78.7427511 47,78.7427511 C29.5158604,78.7427511 15.2553045,64.4845481 15.2553045,47 C15.2553045,29.5154519 29.5158604,15.2572489 47,15.2572489 Z M47,14.27066 C65.0251432,14.27066 79.7269786,28.9723297 79.7269786,47 C79.7269786,65.0251789 65.0251432,79.7268487 47,79.7268487 C28.9723637,79.7268487 14.2730214,65.0251789 14.2730214,47 C14.2730214,28.9723297 28.9723637,14.27066 47,14.27066 Z M47,1.23821892 C72.2027902,1.23821892 92.7584341,21.7946462 92.7584341,47 C92.7584341,72.2028624 72.2027902,92.7592897 47,92.7592897 C21.7947167,92.7592897 1.23907278,72.2028624 1.23907278,47 C1.23907278,21.7946462 21.7947167,1.23821892 47,1.23821892 Z M47,0 C72.8859007,0 94,21.1120064 94,47 C94,72.8855023 72.8859007,94 47,94 C21.1116062,94 0,72.8855023 0,47 C0,21.1120064 21.1116062,0 47,0 Z M33.0535752,43.8160085 L34.1131445,43.8160085 L34.1131445,42.8593162 L33.0535752,42.8593162 L33.0535752,43.8160085 Z M33.0535752,45.9461437 L34.1131445,45.9461437 L34.1131445,44.3491651 L33.0535752,44.3491651 L33.0535752,45.9461437 Z M33.0535752,48.5521336 L34.1131445,48.5521336 L34.1131445,46.4768089 L33.0535752,46.4768089 L33.0535752,48.5521336 Z M34.6965309,43.8160085 L35.8633036,43.8160085 L35.8633036,42.8593162 L34.6965309,42.8593162 L34.6965309,43.8160085 Z M34.6965309,45.9461437 L35.8633036,45.9461437 L35.8633036,44.3491651 L34.6965309,44.3491651 L34.6965309,45.9461437 Z M34.6965309,48.5521336 L35.8633036,48.5521336 L35.8633036,46.4768089 L34.6965309,46.4768089 L34.6965309,48.5521336 Z M36.44669,43.8160085 L37.6134628,43.8160085 L37.6134628,42.8593162 L36.44669,42.8593162 L36.44669,43.8160085 Z M36.44669,45.9461437 L37.6134628,45.9461437 L37.6134628,44.3491651 L36.44669,44.3491651 L36.44669,45.9461437 Z M36.44669,48.5521336 L37.6134628,48.5521336 L37.6134628,46.4768089 L36.44669,46.4768089 L36.44669,48.5521336 Z M38.1968491,43.8160085 L39.3636219,43.8160085 L39.3636219,42.8593162 L38.1968491,42.8593162 L38.1968491,43.8160085 Z M38.1968491,45.9461437 L39.3636219,45.9461437 L39.3636219,44.3491651 L38.1968491,44.3491651 L38.1968491,45.9461437 Z M39.9470083,43.8160085 L41.113781,43.8160085 L41.113781,42.8593162 L39.9470083,42.8593162 L39.9470083,43.8160085 Z M39.9470083,45.9461437 L41.113781,45.9461437 L41.113781,44.3491651 L39.9470083,44.3491651 L39.9470083,45.9461437 Z M41.6971674,43.8160085 L42.8639402,43.8160085 L42.8639402,42.8593162 L41.6971674,42.8593162 L41.6971674,43.8160085 Z M41.6971674,45.9461437 L42.8639402,45.9461437 L42.8639402,44.3491651 L41.6971674,44.3491651 L41.6971674,45.9461437 Z M43.4473265,43.8160085 L44.6140993,43.8160085 L44.6140993,42.8593162 L43.4473265,42.8593162 L43.4473265,43.8160085 Z M43.4473265,45.9461437 L44.6140993,45.9461437 L44.6140993,44.3491651 L43.4473265,44.3491651 L43.4473265,45.9461437 Z M45.1974857,43.8160085 L46.3642584,43.8160085 L46.3642584,42.8593162 L45.1974857,42.8593162 L45.1974857,43.8160085 Z M45.1974857,45.9461437 L46.3642584,45.9461437 L46.3642584,44.3491651 L45.1974857,44.3491651 L45.1974857,45.9461437 Z M46.9451517,43.8160085 L48.1119245,43.8160085 L48.1119245,42.8593162 L46.9451517,42.8593162 L46.9451517,43.8160085 Z M46.9451517,45.9461437 L48.1119245,45.9461437 L48.1119245,44.3491651 L46.9451517,44.3491651 L46.9451517,45.9461437 Z M48.6953108,43.8160085 L49.8620836,43.8160085 L49.8620836,42.8593162 L48.6953108,42.8593162 L48.6953108,43.8160085 Z M48.6953108,45.9461437 L49.8620836,45.9461437 L49.8620836,44.3491651 L48.6953108,44.3491651 L48.6953108,45.9461437 Z M50.44547,43.8160085 L51.6122427,43.8160085 L51.6122427,42.8593162 L50.44547,42.8593162 L50.44547,43.8160085 Z M50.44547,45.9461437 L51.6122427,45.9461437 L51.6122427,44.3491651 L50.44547,44.3491651 L50.44547,45.9461437 Z M52.1956291,43.8160085 L53.3624019,43.8160085 L53.3624019,42.8593162 L52.1956291,42.8593162 L52.1956291,43.8160085 Z M52.1956291,45.9461437 L53.3624019,45.9461437 L53.3624019,44.3491651 L52.1956291,44.3491651 L52.1956291,45.9461437 Z M53.9457882,43.8160085 L55.112561,43.8160085 L55.112561,42.8593162 L53.9457882,42.8593162 L53.9457882,43.8160085 Z M53.9457882,45.9461437 L55.112561,45.9461437 L55.112561,44.3491651 L53.9457882,44.3491651 L53.9457882,45.9461437 Z M55.6959474,43.8160085 L56.8627201,43.8160085 L56.8627201,42.8593162 L55.6959474,42.8593162 L55.6959474,43.8160085 Z M55.6959474,45.9461437 L56.8627201,45.9461437 L56.8627201,44.3491651 L55.6959474,44.3491651 L55.6959474,45.9461437 Z M55.6959474,48.5521336 L56.8627201,48.5521336 L56.8627201,46.4768089 L55.6959474,46.4768089 L55.6959474,48.5521336 Z M57.4461065,43.8160085 L58.6128793,43.8160085 L58.6128793,42.8593162 L57.4461065,42.8593162 L57.4461065,43.8160085 Z M57.4461065,45.9461437 L58.6128793,45.9461437 L58.6128793,44.3491651 L57.4461065,44.3491651 L57.4461065,45.9461437 Z M57.4461065,48.5521336 L58.6128793,48.5521336 L58.6128793,46.4768089 L57.4461065,46.4768089 L57.4461065,48.5521336 Z M59.1962656,43.8160085 L60.3630384,43.8160085 L60.3630384,42.8593162 L59.1962656,42.8593162 L59.1962656,43.8160085 Z M59.1962656,45.9461437 L60.3630384,45.9461437 L60.3630384,44.3491651 L59.1962656,44.3491651 L59.1962656,45.9461437 Z M59.1962656,48.5521336 L60.3630384,48.5521336 L60.3630384,46.4768089 L59.1962656,46.4768089 L59.1962656,48.5521336 Z M45.5564927,38.3349589 L47.623276,38.3349589 L47.623276,33.2276173 L45.5564927,33.2276173 L45.5564927,38.3349589 Z M46.2071929,32.6944606 L46.9451517,32.6944606 L46.9451517,29.9813411 L46.2071929,29.9813411 L46.2071929,32.6944606 Z M43.8811267,54.4093825 L49.2687248,54.4093825 L49.2687248,53.8787172 L43.8811267,53.8787172 L43.8811267,54.4093825 Z M42.5872056,55.3810231 L50.5676321,55.3810231 L50.5676321,54.8503578 L42.5872056,54.8503578 L42.5872056,55.3810231 Z M41.1561638,56.4921813 L51.9936877,56.4921813 L51.9936877,55.9590246 L41.1561638,55.9590246 L41.1561638,56.4921813 Z M69.7246446,51.7286509 L71.4049968,51.7286509 L71.4049968,50.0295256 L69.7246446,50.0295256 L69.7246446,51.7286509 Z M67.5631233,51.7286509 L69.2434755,51.7286509 L69.2434755,50.0295256 L67.5631233,50.0295256 L67.5631233,51.7286509 Z M64.6736155,49.548688 L68.3783683,49.548688 L68.3783683,47.1893453 L64.6736155,47.1893453 L64.6736155,49.548688 Z M64.6736155,46.7085078 L67.7201888,46.7085078 L67.7201888,44.6531142 L64.6736155,44.6531142 L64.6736155,46.7085078 Z M64.6736155,44.1722767 L67.7201888,44.1722767 L67.7201888,41.4168036 L64.6736155,41.4168036 L64.6736155,44.1722767 Z M70.8141311,41.4168036 L68.3783683,41.4168036 L68.3783683,46.7085078 L68.8595374,46.7085078 L68.8595374,49.548688 L69.9789412,49.548688 L69.9789412,46.7085078 L70.8141311,46.7085078 L70.8141311,41.4168036 Z M62.3699873,40.587172 L64.7932845,40.587172 L64.7932845,39.8522131 L62.3699873,39.8522131 L62.3699873,40.587172 Z M21.777265,51.7286509 L23.4576172,51.7286509 L23.4576172,50.0295256 L21.777265,50.0295256 L21.777265,51.7286509 Z M23.9387863,51.7286509 L25.6191386,51.7286509 L25.6191386,50.0295256 L23.9387863,50.0295256 L23.9387863,51.7286509 Z M24.8038935,49.548688 L28.5086463,49.548688 L28.5086463,47.1893453 L24.8038935,47.1893453 L24.8038935,49.548688 Z M25.462073,46.7085078 L28.5086463,46.7085078 L28.5086463,44.6531142 L25.462073,44.6531142 L25.462073,46.7085078 Z M24.8063866,41.4168036 L24.8063866,46.7085078 L24.3227244,46.7085078 L24.3227244,49.548688 L23.2033206,49.548688 L23.2033206,46.7085078 L22.3681307,46.7085078 L22.3681307,41.4168036 L24.8063866,41.4168036 Z M25.462073,44.1722767 L28.5086463,44.1722767 L28.5086463,41.4168036 L25.462073,41.4168036 L25.462073,44.1722767 Z M28.3889773,40.587172 L30.8122746,40.587172 L30.8122746,39.8522131 L28.3889773,39.8522131 L28.3889773,40.587172 Z M71.4698175,44.1722767 L74.1449183,44.1722767 L74.1449183,41.4168036 L71.4698175,41.4168036 L71.4698175,44.1722767 Z M71.4698175,46.7085078 L74.1449183,46.7085078 L74.1449183,44.6531142 L71.4698175,44.6531142 L71.4698175,46.7085078 Z M70.4601103,49.548688 L74.1449183,49.548688 L74.1449183,47.1893453 L70.4601103,47.1893453 L70.4601103,49.548688 Z M72.6041799,52.5209117 L74.1449183,52.5209117 L74.1449183,50.0295256 L71.8861659,50.0295256 L71.8861659,51.7286509 L72.6041799,51.7286509 L72.6041799,52.5209117 Z M64.6736155,52.5209117 L66.3639402,52.5209117 L66.3639402,51.7286509 L67.0819542,51.7286509 L67.0819542,50.0295256 L64.6736155,50.0295256 L64.6736155,52.5209117 Z M62.3699873,52.5209117 L64.0179291,52.5209117 L64.0179291,41.4168036 L62.3699873,41.4168036 L62.3699873,52.5209117 Z M29.1643327,52.5209117 L30.8122746,52.5209117 L30.8122746,41.4168036 L29.1643327,41.4168036 L29.1643327,52.5209117 Z M26.8208148,52.5209117 L28.5086463,52.5209117 L28.5086463,50.0295256 L26.1028008,50.0295256 L26.1028008,51.7286509 L26.8208148,51.7286509 L26.8208148,52.5209117 Z M38.1968491,52.5209117 L41.4328984,52.5209117 L41.4328984,49.0852902 L38.1968491,49.0852902 L38.1968491,52.5209117 Z M36.44669,52.5209117 L37.6134628,52.5209117 L37.6134628,49.0852902 L36.44669,49.0852902 L36.44669,52.5209117 Z M34.6965309,52.5209117 L35.8633036,52.5209117 L35.8633036,49.0852902 L34.6965309,49.0852902 L34.6965309,52.5209117 Z M33.0535752,52.5209117 L34.1131445,52.5209117 L34.1131445,49.0852902 L33.0535752,49.0852902 L33.0535752,52.5209117 Z M31.467961,52.5209117 L32.4676957,52.5209117 L32.4676957,49.0852902 L31.467961,49.0852902 L31.467961,52.5209117 Z M31.467961,48.5521336 L32.4676957,48.5521336 L32.4676957,46.4768089 L31.467961,46.4768089 L31.467961,48.5521336 Z M31.467961,45.9461437 L32.4676957,45.9461437 L32.4676957,44.3491651 L31.467961,44.3491651 L31.467961,45.9461437 Z M31.467961,43.8160085 L32.4676957,43.8160085 L32.4676957,42.8593162 L31.467961,42.8593162 L31.467961,43.8160085 Z M61.7143009,42.3261596 L61.7143009,41.4168036 L31.467961,41.4168036 L31.467961,42.3261596 L32.4676957,42.3261596 L32.4676957,41.8478134 L33.0535752,41.8478134 L33.0535752,42.3261596 L34.1131445,42.3261596 L34.1131445,41.8478134 L34.6965309,41.8478134 L34.6965309,42.3261596 L35.8633036,42.3261596 L35.8633036,41.8478134 L36.44669,41.8478134 L36.44669,42.3261596 L37.6134628,42.3261596 L37.6134628,41.8478134 L38.1968491,41.8478134 L38.1968491,42.3261596 L39.3636219,42.3261596 L39.3636219,41.8478134 L39.9470083,41.8478134 L39.9470083,42.3261596 L41.113781,42.3261596 L41.113781,41.8478134 L41.6971674,41.8478134 L41.6971674,42.3261596 L42.8639402,42.3261596 L42.8639402,41.8478134 L43.4473265,41.8478134 L43.4473265,42.3261596 L44.6140993,42.3261596 L44.6140993,41.8478134 L45.1974857,41.8478134 L45.1974857,42.3261596 L46.3617653,42.3261596 L46.3617653,41.8478134 L46.9451517,41.8478134 L46.9451517,42.3261596 L48.1144176,42.3261596 L48.1144176,41.8478134 L48.6953108,41.8478134 L48.6953108,42.3261596 L49.8620836,42.3261596 L49.8620836,41.8478134 L50.44547,41.8478134 L50.44547,42.3261596 L51.6122427,42.3261596 L51.6122427,41.8478134 L52.1956291,41.8478134 L52.1956291,42.3261596 L53.3624019,42.3261596 L53.3624019,41.8478134 L53.9457882,41.8478134 L53.9457882,42.3261596 L55.112561,42.3261596 L55.112561,41.8478134 L55.6959474,41.8478134 L55.6959474,42.3261596 L56.8627201,42.3261596 L56.8627201,41.8478134 L57.4461065,41.8478134 L57.4461065,42.3261596 L58.6128793,42.3261596 L58.6128793,41.8478134 L59.1962656,41.8478134 L59.1962656,42.3261596 L60.3630384,42.3261596 L60.3630384,41.8478134 L60.9464248,41.8478134 L60.9464248,42.3261596 L61.7143009,42.3261596 Z M60.9464248,43.8160085 L61.7143009,43.8160085 L61.7143009,42.8593162 L60.9464248,42.8593162 L60.9464248,43.8160085 Z M60.9464248,45.9461437 L61.7143009,45.9461437 L61.7143009,44.3491651 L60.9464248,44.3491651 L60.9464248,45.9461437 Z M60.9464248,48.5521336 L61.7143009,48.5521336 L61.7143009,46.4768089 L60.9464248,46.4768089 L60.9464248,48.5521336 Z M60.9464248,52.5209117 L61.7143009,52.5209117 L61.7143009,49.0852902 L60.9464248,49.0852902 L60.9464248,52.5209117 Z M59.1962656,52.5209117 L60.3630384,52.5209117 L60.3630384,49.0852902 L59.1962656,49.0852902 L59.1962656,52.5209117 Z M57.4461065,52.5209117 L58.6128793,52.5209117 L58.6128793,49.0852902 L57.4461065,49.0852902 L57.4461065,52.5209117 Z M55.6959474,52.5209117 L56.8627201,52.5209117 L56.8627201,49.0852902 L55.6959474,49.0852902 L55.6959474,52.5209117 Z M51.8565669,52.5209117 L55.112561,52.5209117 L55.112561,49.0852902 L51.8565669,49.0852902 L51.8565669,52.5209117 Z M49.8546043,46.7060164 L51.8565669,47.7723297 L51.8565669,48.5521336 L55.112561,48.5521336 L55.112561,46.4768089 L38.1968491,46.4768089 L38.1968491,48.5521336 L41.4328984,48.5521336 L41.4328984,47.7723297 L43.434861,46.7060164 L49.8546043,46.7060164 Z M48.6429557,47.8670024 L44.6465097,47.8670024 L44.1553681,48.5346939 L44.1553681,52.4586271 L44.6564821,52.4586271 L44.6564821,48.7888153 L45.1376512,48.2432017 C46.1448653,48.2432017 47.1470931,48.2432017 48.1518141,48.2432017 L48.6379694,48.7888153 L48.6379694,52.4586271 L49.201411,52.4586271 L49.201411,48.5346939 L48.6429557,47.8670024 Z M47.718014,52.5209117 L47.718014,49.6732574 L47.4612243,49.3842566 C46.9277,49.3842566 46.3941757,49.3842566 45.8606514,49.3842566 L45.6038617,49.6732574 L45.6038617,52.5209117 L47.718014,52.5209117 Z M47.7205071,49.1824543 L48.0196796,49.5362311 L48.0196796,52.5209117 L49.8421388,52.5209117 L49.8421388,48.1858998 L49.0692765,47.3089319 C47.4512519,47.3089319 45.8382135,47.3089319 44.225175,47.3089319 L43.4498196,48.1858998 L43.4498196,52.5209117 L45.3370995,52.5209117 L45.3370995,49.5362311 L45.6013686,49.1824543 L47.7205071,49.1824543 Z M44.1254509,40.587172 L49.0568109,40.587172 L49.0568109,38.8681156 L44.1254509,38.8681156 L44.1254509,40.587172 Z M19.0149056,40.587172 L27.7332909,40.587172 L27.7332909,38.7709515 L28.3889773,38.7709515 L28.3889773,39.3713756 L30.8122746,39.3713756 L30.8122746,38.7709515 L31.467961,38.7709515 L31.467961,40.587172 L43.5420645,40.587172 L43.5420645,37.4305857 L44.1254509,37.4305857 L44.1254509,38.3349589 L44.9731063,38.3349589 L44.9731063,32.6944606 L45.6736686,32.6944606 L45.6736686,29.4481845 L46.3094101,29.4481845 L46.3094101,24.0094885 L46.8429344,24.0094885 L46.8429344,29.4481845 L47.4761829,29.4481845 L47.4761829,32.6944606 L48.2091555,32.6944606 L48.2091555,38.3349589 L49.0568109,38.3349589 L49.0568109,37.4305857 L49.6401973,37.4305857 L49.6401973,40.587172 L61.7143009,40.587172 L61.7143009,38.7709515 L62.3699873,38.7709515 L62.3699873,39.3713756 L64.7932845,39.3713756 L64.7932845,38.7709515 L65.4489709,38.7709515 L65.4489709,40.587172 L74.8006047,40.587172 L74.8006047,44.1722767 L74.8230426,44.1722767 L74.8230426,44.6531142 L74.8006047,44.6531142 L74.8006047,46.7085078 L74.8230426,46.7085078 L74.8230426,47.1893453 L74.8006047,47.1893453 L74.8006047,53.1786377 L18.3592192,53.1786377 L18.3592192,40.587172 L19.0149056,40.587172 Z M19.0149056,44.1722767 L21.7149374,44.1722767 L21.7149374,41.4168036 L19.0149056,41.4168036 L19.0149056,44.1722767 Z M19.0149056,46.7085078 L21.7149374,46.7085078 L21.7149374,44.6531142 L19.0149056,44.6531142 L19.0149056,46.7085078 Z M19.0149056,49.548688 L22.7221515,49.548688 L22.7221515,47.1893453 L19.0149056,47.1893453 L19.0149056,49.548688 Z M19.0149056,52.5209117 L20.5780819,52.5209117 L20.5780819,51.7286509 L21.2960959,51.7286509 L21.2960959,50.0295256 L19.0149056,50.0295256 L19.0149056,52.5209117 Z M8.31948865,44.9919428 C9.25689582,44.9919428 10.0222788,45.7567983 10.0222788,46.6960509 C10.0222788,47.6328121 9.25689582,48.400159 8.31948865,48.400159 C7.37958837,48.400159 6.61420539,47.6328121 6.61420539,46.6960509 C6.61420539,45.7567983 7.37958837,44.9919428 8.31948865,44.9919428 Z M86.6553151,44.9919428 C87.5927223,44.9919428 88.3581052,45.7567983 88.3581052,46.6960509 C88.3581052,47.6328121 87.5927223,48.400159 86.6553151,48.400159 C85.7154148,48.400159 84.9500318,47.6328121 84.9500318,46.6960509 C84.9500318,45.7567983 85.7154148,44.9919428 86.6553151,44.9919428 Z M39.1217908,68.929181 L39.1217908,65.0426186 L38.0796732,65.0426186 L38.0796732,64.0186589 L38.2018353,64.0186589 C38.5458837,64.0186589 38.815139,63.9464087 39.0096011,63.8019083 C39.2040632,63.6574079 39.3436771,63.4207262 39.4309357,63.096846 L40.4630808,63.096846 L40.4630808,68.929181 L39.1217908,68.929181 Z M44.773658,66.5573814 C44.631551,66.6844421 44.4769786,66.7791148 44.3024613,66.8413994 C44.1304371,66.9011927 43.935975,66.9335807 43.7165818,66.9335807 C43.2005092,66.9335807 42.7816677,66.7566923 42.4650435,66.4029155 C42.1459262,66.05163 41.9863675,65.5907236 41.9863675,65.0201961 C41.9863675,64.4172807 42.165871,63.928969 42.5273711,63.5577525 C42.8863781,63.1840445 43.3600679,62.9971906 43.9409612,62.9971906 C44.5941545,62.9971906 45.0977615,63.2438378 45.4567685,63.7321495 C45.8157755,64.2204612 45.995279,64.9105751 45.995279,65.8024914 C45.995279,66.8737874 45.8132824,67.6809966 45.4467961,68.2216274 C45.0803098,68.7622582 44.5368131,69.0313279 43.816306,69.0313279 C43.3052196,69.0313279 42.9013367,68.8793533 42.6021642,68.5754042 C42.3029917,68.2714551 42.1534055,67.8603764 42.1484193,67.3446594 L43.2354127,67.2026504 C43.2503713,67.4393321 43.315192,67.6212033 43.4373541,67.7507554 C43.55453,67.8803074 43.7140887,67.9450835 43.913537,67.9450835 C44.1728199,67.9450835 44.3747613,67.8279883 44.5193613,67.5987808 C44.6639614,67.3670819 44.7462338,67.0207792 44.773658,66.5573814 Z M44.7188097,65.0027564 C44.7188097,64.761092 44.6415234,64.5493241 44.486951,64.367453 C44.3323785,64.1880732 44.1503819,64.0983832 43.9409612,64.0983832 C43.7290473,64.0983832 43.5445576,64.1855818 43.3924783,64.3599788 C43.2403989,64.5368672 43.1631127,64.748635 43.1631127,65.0027564 C43.1631127,65.2543864 43.2403989,65.4661543 43.3899851,65.6405513 C43.5420645,65.8124569 43.7240611,65.8971641 43.9409612,65.8971641 C44.1553681,65.8971641 44.3373647,65.8099655 44.4894441,65.6355685 C44.6440165,65.4611715 44.7188097,65.2494037 44.7188097,65.0027564 Z M46.4814343,65.9644315 C46.4814343,65.0351444 46.6684171,64.3126425 47.0423828,63.78696 C47.4163484,63.2612775 47.9349141,62.9971906 48.5955867,62.9971906 C49.2537662,62.9971906 49.7723318,63.2612775 50.1512837,63.78696 C50.5302355,64.3126425 50.7172183,65.0401272 50.7172183,65.9644315 C50.7172183,66.9360721 50.5377148,67.6909621 50.1762147,68.2241187 C49.8147146,68.7572754 49.3036283,69.0238537 48.6454488,69.0238537 C47.9448865,69.0238537 47.406376,68.7622582 47.0373966,68.2390671 C46.665924,67.7133846 46.4814343,66.9560032 46.4814343,65.9644315 Z M48.603066,64.0983832 C48.3088797,64.0983832 48.0845003,64.2653061 47.9299279,64.5991519 C47.7728623,64.9305062 47.6955761,65.4113438 47.6955761,66.0366817 C47.6955761,66.6346144 47.7728623,67.1005036 47.9299279,67.4268752 C48.0894865,67.7557381 48.3088797,67.9201696 48.5955867,67.9201696 C48.8922661,67.9201696 49.1191386,67.7557381 49.273711,67.4268752 C49.4282835,67.1005036 49.5080628,66.619666 49.5080628,65.9818712 C49.5080628,65.373973 49.4282835,64.9080838 49.273711,64.5817122 C49.1166454,64.2603234 48.8922661,64.0983832 48.603066,64.0983832 Z M54.10784,66.5573814 C53.9657331,66.6844421 53.8086675,66.7791148 53.6341502,66.8413994 C53.462126,66.9011927 53.2676639,66.9335807 53.0482707,66.9335807 C52.5321982,66.9335807 52.1158498,66.7566923 51.7967324,66.4029155 C51.4776151,66.05163 51.3180564,65.5907236 51.3180564,65.0201961 C51.3180564,64.4172807 51.500053,63.928969 51.85906,63.5577525 C52.218067,63.1840445 52.6917568,62.9971906 53.2726501,62.9971906 C53.9258434,62.9971906 54.4319436,63.2438378 54.7884575,63.7321495 C55.1474645,64.2204612 55.3294611,64.9105751 55.3294611,65.8024914 C55.3294611,66.8737874 55.1449714,67.6809966 54.778485,68.2216274 C54.4119987,68.7622582 53.868502,69.0313279 53.1479949,69.0313279 C52.6394017,69.0313279 52.2330257,68.8793533 51.9338532,68.5754042 C51.6346807,68.2714551 51.4850944,67.8603764 51.4801082,67.3446594 L52.5671016,67.2026504 C52.5820603,67.4393321 52.6493741,67.6212033 52.7690431,67.7507554 C52.886219,67.8803074 53.0457776,67.9450835 53.245226,67.9450835 C53.5045088,67.9450835 53.7064502,67.8279883 53.8510503,67.5987808 C53.9956503,67.3670819 54.0804159,67.0207792 54.10784,66.5573814 Z M54.0504986,65.0027564 C54.0504986,64.761092 53.9732124,64.5493241 53.8186399,64.367453 C53.6640675,64.1880732 53.4820709,64.0983832 53.2726501,64.0983832 C53.0607363,64.0983832 52.8762466,64.1855818 52.7241672,64.3599788 C52.5720878,64.5368672 52.4972947,64.748635 52.4972947,65.0027564 C52.4972947,65.2543864 52.5720878,65.4661543 52.7216741,65.6405513 C52.8737534,65.8124569 53.0582432,65.8971641 53.2726501,65.8971641 C53.4870571,65.8971641 53.6690537,65.8099655 53.8236261,65.6355685 C53.9757055,65.4611715 54.0504986,65.2494037 54.0504986,65.0027564 Z M7.72862296,60.6204082 L8.04275408,60.5157699 C8.13250583,60.7673999 8.24968173,60.92934 8.39178867,61.0040816 C8.53638871,61.0763318 8.72835773,61.0713491 8.97268194,60.9891333 L12.1115001,59.9402597 C12.3333864,59.8655182 12.4730002,59.7608799 12.5328347,59.6213623 C12.5901761,59.4818447 12.5777106,59.2850252 12.4979313,59.0284124 L12.7921175,58.928757 L13.5400488,61.1734959 L13.2458625,61.2731513 C13.1660832,61.0289955 13.0538935,60.8670554 12.9092934,60.7823483 C12.7622003,60.6976411 12.5826968,60.690167 12.3707829,60.7624172 L9.3616062,61.7664458 C9.03002334,61.8785582 8.8280819,62.0205672 8.76326119,62.1899814 C8.69594738,62.3593957 8.73085084,62.6483965 8.86797157,63.0544924 C9.01257161,63.4879936 9.21700615,63.8143652 9.47878209,64.0410814 C9.74055803,64.2653061 10.074634,64.3923668 10.48101,64.4297376 L10.5009548,64.7785317 L9.15467855,64.8881527 L7.72862296,60.6204082 Z M10.122003,65.9121124 L10.8699342,67.4119268 L11.1641205,67.2649351 C11.1142584,67.0556586 11.104286,66.8962099 11.1391895,66.7840975 C11.1715998,66.6744765 11.2588585,66.5847866 11.3959792,66.5150278 C11.4458413,66.4926054 11.5056758,66.4676915 11.5704965,66.445269 C11.6378103,66.4278293 11.7076172,66.4078982 11.7799173,66.3954413 L12.6998727,66.2310098 L13.4403246,67.7208587 L12.6624761,68.5131195 C12.6151072,68.5629473 12.562752,68.612775 12.5054106,68.6551285 C12.4455761,68.6999735 12.3907278,68.7348529 12.3358795,68.7622582 C12.2311691,68.8145773 12.1364311,68.81956 12.0491725,68.7722237 C11.9669001,68.7298701 11.869669,68.6177578 11.7524931,68.4433607 L11.4558137,68.5928439 L12.3707829,70.4240127 L12.6674623,70.2795123 C12.6176003,70.1350119 12.6200934,69.9880201 12.6799279,69.8410284 C12.7422555,69.6915452 12.87439,69.5121654 13.0813176,69.2979062 L16.1652875,66.0715611 L15.8062805,65.3565333 C15.7888288,65.3914127 15.7688839,65.4238007 15.7489391,65.4487146 C15.7240081,65.4761198 15.699077,65.4960509 15.6666667,65.5109992 C15.6217908,65.5334217 15.5519839,65.5508614 15.4472735,65.5608269 C15.4298218,65.5583355 15.4148631,65.5608269 15.41237,65.5608269 L11.5380861,66.0341903 C11.1790791,66.0765439 10.9247825,66.0765439 10.7851687,66.0341903 C10.6455548,65.9918367 10.5233927,65.9021468 10.4186824,65.7651206 L10.122003,65.9121124 Z M13.138659,66.1687252 L13.759442,67.419401 L15.2503183,65.909621 L13.138659,66.1687252 Z M12.7522279,71.1838855 L13.0015383,70.9621521 L13.0588797,71.0244368 C13.2259177,71.2137821 13.400435,71.2935065 13.5849247,71.271084 C13.7694144,71.2511529 13.9937938,71.1240922 14.2555697,70.8874105 L16.5442393,68.8419825 C16.60906,68.6202491 16.631498,68.4184469 16.6140463,68.2340843 C16.5965945,68.0547045 16.5392531,67.8952558 16.4420221,67.7681951 L16.6713877,67.5589186 L17.5040844,68.4882057 L16.6065669,73.5108402 L18.7107469,71.6223695 C18.9675366,71.3931619 19.0996711,71.2038166 19.1146297,71.0468593 C19.1295884,70.8948847 19.0398366,70.6980652 18.8528538,70.4564007 L19.0822194,70.2496157 L20.366168,71.6846541 L20.1343094,71.8889478 C19.8974645,71.7020938 19.6980161,71.6099125 19.5409506,71.6124039 C19.383885,71.6074212 19.1819436,71.7195335 18.9351262,71.9412669 L16.5218014,74.1037901 C16.3772014,74.2308508 16.2550393,74.3504373 16.1428496,74.4625497 C16.033153,74.5746621 15.9309357,74.6817917 15.841184,74.7914127 L15.5619563,74.4799894 C15.6043391,74.3205407 15.6467218,74.148635 15.6841184,73.9567983 C15.7240081,73.7724357 15.7738701,73.4934005 15.8361978,73.1246753 L16.4769255,69.4100186 L14.5073732,71.1689372 C14.2356249,71.4106016 14.0785593,71.6223695 14.0311903,71.7917837 C13.9863144,71.9661808 14.0436558,72.1380864 14.2032145,72.3149748 C14.2231593,72.3398887 14.2431042,72.3598198 14.2530766,72.3697853 C14.2680352,72.3847336 14.2805007,72.3946992 14.2929663,72.4046647 L14.0436558,72.6263981 L12.7522279,71.1838855 Z M17.0503395,75.9573814 L19.7703161,78.6430957 L20.892213,78.0277233 L20.6354233,77.8010072 C20.2440059,77.8757487 19.90993,77.8682746 19.6356885,77.7785847 C19.358954,77.6938776 19.0747401,77.5020408 18.7705814,77.2055659 L17.9902398,76.4357275 L23.1609378,75.3818712 L23.3454275,75.1975086 L20.8323785,72.7135966 L20.0121473,73.4784522 L20.2390197,73.6553406 C20.5481647,73.5332627 20.794982,73.4859263 20.9794717,73.5208057 C21.1664545,73.5531937 21.3783683,73.6877286 21.6127201,73.9219189 L22.44791,74.7440763 L17.2323361,75.7705274 L17.0503395,75.9573814 Z M20.6827923,79.2958389 L20.8747613,79.0541744 C21.10662,79.1986748 21.2886166,79.2609594 21.4207511,79.2435197 C21.5528856,79.22608 21.7124443,79.1040021 21.8944409,78.8723032 L23.6396138,76.6848662 C23.8216104,76.4556586 23.906376,76.2762788 23.8939105,76.1442354 C23.8789518,76.0146833 23.7767346,75.8477604 23.5822724,75.6534323 L23.7767346,75.4117678 L25.4745385,76.7670819 L25.2825695,77.0087464 C25.0482177,76.8617546 24.863728,76.7969785 24.7340866,76.8144182 C24.6044452,76.8343493 24.4473796,76.9539359 24.265383,77.1831434 L23.5523552,78.0750596 L25.3698281,79.522555 L26.0803628,78.6281474 C26.2598663,78.4039226 26.3446319,78.2220514 26.3321663,78.090008 C26.3197008,77.9579645 26.2149905,77.7910416 26.0155421,77.5942221 L26.2075111,77.3500663 L27.9152875,78.7128545 L27.7233185,78.9520276 C27.4839805,78.8025444 27.3019839,78.7377684 27.1673562,78.7552081 C27.0352217,78.7701564 26.8781562,78.8947257 26.6986527,79.1214418 L24.9534797,81.3113703 C24.7739762,81.5405778 24.6892107,81.722449 24.7016762,81.8569838 C24.7141417,81.9915187 24.8188521,82.1559502 25.0133142,82.3502783 L24.8238383,82.5919428 L23.116062,81.2341373 L23.3055379,80.9924728 C23.5448759,81.1394646 23.7268725,81.206732 23.8615001,81.186801 C23.9961277,81.1693613 24.1556864,81.0472833 24.3351899,80.8180758 L25.1429557,79.8040816 L23.3304689,78.3565863 L22.5227032,79.3730718 C22.3357203,79.6022794 22.2534479,79.7866419 22.2659134,79.916194 C22.278379,80.0482375 22.3805962,80.212669 22.5750583,80.4094885 L22.3830893,80.6511529 L20.6827923,79.2958389 Z M28.1072565,84.5975086 C27.8105771,84.4156374 27.568746,84.1889213 27.376777,83.9123774 C27.1873011,83.6358336 27.0626459,83.3269017 26.9978252,82.9855818 C26.9429769,82.6990724 26.9479631,82.400106 27.0127838,82.0936655 C27.0800976,81.7847336 27.2072459,81.4832759 27.3917356,81.1793268 C27.5762253,80.8803605 27.7931254,80.6262391 28.0424358,80.4219454 C28.2917462,80.2176517 28.5610015,80.0681686 28.8502016,79.9784787 C29.1917568,79.8713491 29.5358052,79.8414524 29.8773605,79.8813146 C30.2214089,79.9236682 30.5455124,80.0382719 30.8496711,80.2226345 C31.1164333,80.387066 31.3358264,80.5913597 31.5128368,80.8330241 C31.6873541,81.0796713 31.8120093,81.3562152 31.8868025,81.6676385 C31.9665818,82.0039756 31.9790473,82.3328386 31.924199,82.6542274 C31.8668576,82.9781076 31.7422024,83.2994964 31.5477403,83.6159025 C31.3782092,83.8924463 31.1762678,84.129128 30.9369298,84.3309303 C30.702578,84.5302412 30.4482813,84.6797244 30.176533,84.7793798 C29.8050605,84.9114233 29.4460535,84.9637424 29.099512,84.9338457 C28.7529705,84.9039491 28.4213877,84.7918367 28.1072565,84.5975086 Z M28.2493635,81.4459051 C27.8579461,82.0837 27.6684702,82.6691757 27.6834288,83.1948582 C27.6983874,83.7205407 27.9103013,84.1067055 28.3216635,84.3608269 C28.7230533,84.6049828 29.1369086,84.6373708 29.5607363,84.4505168 C29.984564,84.2636629 30.3734882,83.8799894 30.7324952,83.2945136 C31.1039677,82.6891068 31.278485,82.1210708 31.2510609,81.5928969 C31.2236367,81.064723 31.0067367,80.6735754 30.6003607,80.4244368 C30.2064502,80.1827723 29.8025674,80.1528757 29.3887121,80.3322555 C28.9723637,80.5116353 28.5934118,80.8828518 28.2493635,81.4459051 Z M33.0361235,81.7174662 L33.1408339,81.4483965 L35.0680034,82.1958124 L34.963293,82.4598993 C34.7264481,82.4100716 34.5494377,82.4150543 34.437248,82.4798304 C34.3225652,82.5446064 34.2078825,82.7264776 34.0882135,83.0354095 L33.2754615,85.1381394 C33.1283683,85.5193215 33.1134097,85.8456931 33.2280925,86.1147628 C33.3477615,86.3863239 33.5945788,86.5931089 33.9710376,86.7401007 C34.1704859,86.8173337 34.3674411,86.8522131 34.556917,86.8422475 C34.7513792,86.832282 34.9258965,86.7824543 35.0804689,86.6877816 C35.1901655,86.6230056 35.2849035,86.5333157 35.369669,86.4112377 C35.4519414,86.2916512 35.5566518,86.0674265 35.681307,85.7385635 L36.3195417,84.0917572 C36.471621,83.7006096 36.5214831,83.4265571 36.4741142,83.2720912 C36.4292383,83.1151338 36.2771589,82.9830904 36.0253554,82.8734694 L36.1275727,82.6043997 L37.7555697,83.2347204 L37.6533524,83.5012987 C37.4015489,83.4439968 37.2070868,83.4589451 37.0699661,83.5461437 C36.9303522,83.6358336 36.7907384,83.8575669 36.6536177,84.2213093 L35.9455761,86.0425126 C35.8333864,86.3414789 35.7211967,86.5557381 35.6164863,86.6877816 C35.5117759,86.8198251 35.3796414,86.9319375 35.2175896,87.0216274 C34.9832379,87.1511794 34.7339274,87.2184469 34.4646722,87.2234296 C34.1929238,87.2284124 33.9062168,87.1736019 33.6020581,87.0565068 C33.0411097,86.8397562 32.6746234,86.5457726 32.5025992,86.1720647 C32.330575,85.8033395 32.3505198,85.3474158 32.5624337,84.8042937 L33.3552408,82.7513915 C33.4749098,82.4474424 33.5073202,82.2282004 33.4649374,82.0961569 C33.4175684,81.9641134 33.2754615,81.8370527 33.0361235,81.7174662 Z M42.4550711,84.4679565 L42.4550711,84.1565333 L44.67892,84.1565333 L44.67892,84.4679565 C44.4171441,84.5053273 44.2451199,84.5800689 44.1553681,84.6871985 C44.0681095,84.7968195 44.0232336,85.026027 44.0232336,85.3798039 L44.0232336,87.806414 C44.0232336,88.244898 44.1329302,88.5787437 44.3573096,88.8029685 C44.5791958,89.0296846 44.9057925,89.141797 45.3420857,89.141797 C45.5714513,89.141797 45.7808721,89.0994434 45.970348,89.0172277 C46.1598239,88.9350119 46.3143964,88.8154254 46.4340654,88.6584681 C46.521324,88.5538298 46.5811585,88.4242778 46.616062,88.2723032 C46.6509654,88.1178373 46.6684171,87.8512589 46.6684171,87.4750596 L46.6684171,85.574132 C46.6684171,85.1231911 46.616062,84.8292075 46.5063654,84.6921813 C46.3991619,84.5526637 46.1972205,84.4779221 45.9005411,84.4679565 L45.9005411,84.1565333 L47.7778485,84.1565333 L47.7778485,84.4679565 C47.503607,84.5053273 47.3141311,84.5950172 47.2094208,84.7370262 C47.1047104,84.8790353 47.0523552,85.1580705 47.0523552,85.574132 L47.0523552,87.6768619 C47.0523552,88.0206732 47.024931,88.277286 46.9725759,88.451683 C46.9177276,88.6235887 46.8254827,88.7880201 46.7008275,88.9424861 C46.5163378,89.1617281 46.2919584,89.3261596 46.0227032,89.4357805 C45.755941,89.5454015 45.444303,89.6027034 45.0952684,89.6027034 C44.4470613,89.6027034 43.9633991,89.4482375 43.649268,89.1442884 C43.3326438,88.8378479 43.1755782,88.3719587 43.1755782,87.7466207 L43.1755782,85.3798039 C43.1755782,85.0285184 43.1282092,84.7968195 43.0309781,84.6822157 C42.9337471,84.567612 42.7417781,84.4953618 42.4550711,84.4679565 Z M49.513049,89.4083753 L49.4806387,89.0795123 L49.5629111,89.0695468 C49.8147146,89.0471243 49.9842457,88.9524516 50.0789837,88.7905115 C50.1712285,88.6285714 50.1986527,88.3719587 50.1662423,88.0206732 L49.8670698,84.9662338 C49.7249629,84.7843626 49.5778697,84.6473363 49.4208042,84.5526637 C49.2637386,84.457991 49.1041799,84.413146 48.9421282,84.413146 L48.9122109,84.1042142 L50.1487906,83.9846276 L53.6665606,87.6793533 L53.3923191,84.8665783 C53.3599088,84.5252584 53.2851156,84.3010337 53.1679397,84.1988868 C53.0532569,84.09674 52.8413431,84.0543864 52.5346913,84.0618606 L52.504774,83.7554201 L54.419478,83.5685661 L54.4493953,83.8750066 C54.1601952,83.9572224 53.9682262,84.0618606 53.8759813,84.1889213 C53.7812434,84.3134906 53.748833,84.5426981 53.7812434,84.8740525 L54.0978676,88.1003976 C54.1153193,88.2897429 54.1352642,88.4591572 54.1626883,88.6161145 C54.1876194,88.7705804 54.2150435,88.9175722 54.249947,89.0545985 L53.8311055,89.0944606 C53.7288882,88.9673999 53.6142054,88.8303737 53.484564,88.6883647 C53.3574157,88.5438643 53.1629535,88.3370792 52.9011776,88.0729923 L50.2834182,85.3573814 L50.5402079,87.9857938 C50.5751114,88.3495362 50.6499045,88.5986748 50.7596011,88.7381924 C50.8717908,88.8752187 51.0463081,88.9350119 51.283153,88.9100981 C51.3155633,88.9076067 51.3404944,88.9051153 51.3579461,88.9001325 C51.3778909,88.8976411 51.3928496,88.8951497 51.4078082,88.890167 L51.4402185,89.2215213 L49.513049,89.4083753 Z M56.0524613,88.5787437 L58.3311585,88.0505698 L58.2563654,87.729181 C57.9621791,87.761569 57.7527583,87.7391466 57.6330893,87.6619136 C57.5134203,87.5846806 57.4186824,87.3903525 57.3463823,87.0814206 L56.6657649,84.1490591 C56.595958,83.8426186 56.595958,83.6308508 56.668258,83.5087729 C56.740558,83.3866949 56.9200615,83.2745826 57.1992892,83.1749271 L57.1244961,82.8535383 L54.848292,83.3817122 L54.920592,83.703101 C55.2172714,83.670713 55.424199,83.6931354 55.543868,83.7703684 C55.663537,83.84511 55.758275,84.0369467 55.830575,84.3433872 L56.5111924,87.2757487 C56.5809994,87.5846806 56.5809994,87.7989398 56.5062062,87.9235091 C56.4339062,88.0455871 56.2568958,88.1576994 55.9776682,88.2573549 L56.0524613,88.5787437 Z M61.9436665,86.8870925 L58.9369828,83.5511264 L58.9245173,83.5361781 C58.4732654,83.0379009 58.1317102,82.8336072 57.8948653,82.9208057 L57.8599618,82.9332627 L57.7527583,82.6442619 L59.6051347,81.9491651 L59.7148313,82.2381659 L59.6799279,82.2506228 C59.5328347,82.3054333 59.4306174,82.3727008 59.3757691,82.4474424 C59.3184278,82.5246753 59.3084553,82.6118738 59.3433588,82.7065465 C59.3558243,82.7364431 59.3757691,82.7713226 59.4031933,82.8111847 C59.4306174,82.8535383 59.4655209,82.8958919 59.5054106,82.9382454 L61.8638871,85.5542009 C61.8638871,85.168036 61.8638871,84.6523191 61.8663802,84.0145243 C61.8763526,82.7439173 61.8514216,82.0239067 61.789094,81.8594752 C61.7492043,81.7523456 61.6669319,81.6850782 61.5397836,81.6626557 C61.4126353,81.6377418 61.2555697,81.6601643 61.07108,81.7274318 L61.0436558,81.7398887 L60.9364524,81.4483965 L62.5295459,80.8504638 L62.6367494,81.141956 L62.6217908,81.1469388 C62.3575217,81.2465942 62.2278803,81.6975351 62.2328665,82.4997615 L62.2353596,82.5520806 C62.242839,83.1824013 62.2403459,83.9846276 62.2303734,84.9587596 C62.2179079,85.935383 62.2278803,86.5382984 62.2627838,86.767506 L61.9436665,86.8870925 Z M65.7356779,85.038484 L65.5661468,84.7519746 C65.8004986,84.5725948 65.9351262,84.413146 65.9675366,84.2736284 C65.999947,84.1341108 65.9351262,83.9273257 65.7730745,83.6557646 L64.2024188,81.032335 C64.0428602,80.7632653 63.8907808,80.6087994 63.7536601,80.5714286 C63.6140463,80.5340578 63.4096117,80.5764113 63.1403565,80.6984893 L62.9957564,80.4568248 L66.6307023,78.2818447 L67.2440059,79.2335542 L66.9722576,79.3954943 C66.742892,79.1812351 66.5010609,79.0765969 66.2442712,79.0865624 C65.9899745,79.096528 65.6459262,79.2335542 65.2096329,79.4926584 L64.7459156,79.7692022 C64.6461914,79.8314869 64.5913431,79.8788232 64.5788776,79.9186854 C64.5689052,79.9585476 64.5938362,80.0283064 64.6511776,80.1254704 L65.5611606,81.645216 L66.0772332,81.3362841 C66.4711436,81.0996024 66.7079885,80.9002915 66.7852748,80.7333687 C66.8650541,80.5664458 66.8351369,80.3671349 66.7005092,80.1329446 L66.9772438,79.9635303 L67.8996923,81.503207 L67.6179716,81.6651471 C67.4708784,81.4334482 67.3038404,81.3113703 67.1168576,81.2989133 C66.9323679,81.2914392 66.6456609,81.4010602 66.2567367,81.6327591 L65.738171,81.941691 L66.5359644,83.2770739 C66.6880437,83.5287039 66.8500955,83.6682216 67.0271059,83.6931354 C67.2041163,83.7155579 67.4534267,83.6333422 67.7750371,83.439014 C68.0916614,83.2496687 68.3160407,83.0154784 68.4481753,82.7364431 C68.5828029,82.4549165 68.632665,82.1135966 68.6002546,81.7075007 L68.9293444,81.6078452 L69.3207617,82.8909091 L65.7356779,85.038484 Z M71.0559622,81.9267426 L70.8415553,81.6751126 C71.0210588,81.4807845 71.1108105,81.3063875 71.1108105,81.1544129 C71.1108105,80.999947 71.0135795,80.8056189 70.8166242,80.57392 L68.9243582,78.3466207 C68.6700615,78.0476544 68.4780925,77.8906971 68.3484511,77.8782401 C68.2163166,77.8657832 68.03432,77.9380334 67.7999682,78.0949907 L67.6005198,77.858309 L69.0265754,76.6474954 C69.5925101,76.1666578 70.0861447,75.8926054 70.5099724,75.8228465 C70.9338001,75.7555791 71.2928071,75.8926054 71.5845003,76.2364166 C71.8138659,76.5054864 71.9185763,76.7994699 71.8986314,77.115876 C71.8786866,77.4297906 71.7340866,77.7686191 71.4648313,78.1248874 C71.5994589,78.1248874 71.7340866,78.1248874 71.863728,78.1348529 C71.9933694,78.1423271 72.1180246,78.1572754 72.2327074,78.1772065 L73.8806493,78.4487676 L73.9130596,78.4537503 C74.3119563,78.5210178 74.5637598,78.5110522 74.6684702,78.4213623 L74.6784426,78.4113968 L74.8953427,78.6655182 L74.137439,79.3082958 L71.5471038,78.8598463 C71.2504244,78.8075272 71.0434967,78.7900875 70.9288139,78.8050358 C70.8141311,78.8199841 70.714407,78.864829 70.6321345,78.9345879 C70.6271483,78.9395706 70.6171759,78.9495362 70.6072035,78.9619931 C70.594738,78.97445 70.5872586,78.9844156 70.5797793,78.9893984 L71.4473796,80.0083753 C71.6642797,80.2624967 71.8437832,80.4045057 71.983397,80.4319109 C72.1255039,80.4543334 72.3050074,80.3970315 72.5194144,80.2475484 L72.7338213,80.5016698 L71.0559622,81.9267426 Z M70.3454275,78.7003976 C70.3952896,78.6680095 70.4476448,78.6356215 70.4950138,78.5982507 C70.5448759,78.5608799 70.6047104,78.5135436 70.6770104,78.4537503 C70.9662105,78.2046117 71.1332485,77.935542 71.1731381,77.6465412 C71.2130278,77.355049 71.1257691,77.0834879 70.9088691,76.8293666 C70.7069276,76.5926849 70.4576172,76.4755897 70.1609378,76.4755897 C69.8642584,76.4755897 69.5750583,76.5976676 69.2933376,76.8368407 C69.1661893,76.9439703 69.0913961,77.0286774 69.0764375,77.0884707 C69.0564927,77.1457726 69.088903,77.2230056 69.1686824,77.3176782 L69.3207617,77.4945667 L70.3454275,78.7003976 Z M75.9449395,77.6365757 C76.2166879,77.5443944 76.458519,77.4272992 76.6729259,77.2753247 C76.8873329,77.1258415 77.0768088,76.9414789 77.2438468,76.7247283 C77.5529917,76.3211238 77.6901125,75.9075537 77.6502228,75.4890008 C77.6103331,75.0729393 77.4034055,74.7191625 77.031933,74.4326531 C76.8250053,74.2756957 76.6006259,74.1884972 76.3488224,74.1710575 C76.1020051,74.1536178 75.787874,74.2084283 75.4089221,74.3305062 C75.2668152,74.3778426 75.0723531,74.44511 74.8180564,74.5323085 C74.3443666,74.6992314 74.01777,74.7939041 73.8357734,74.8238007 C73.7185975,74.8412404 73.6064078,74.838749 73.4967112,74.8088524 C73.3870146,74.7789557 73.2847974,74.7266366 73.1900594,74.651895 C73.0155421,74.5198516 72.9232973,74.3504373 72.9108317,74.1411609 C72.8983662,73.9318844 72.9681731,73.7300822 73.1202525,73.5307713 C73.3097284,73.2791413 73.5440802,73.142115 73.8183217,73.109727 C74.0925631,73.0848131 74.401708,73.1620461 74.7432633,73.3538829 L74.9352323,73.1022528 L74.0676321,72.4370527 C73.7884044,72.5690962 73.5490664,72.7061224 73.3496181,72.8531142 C73.1501697,72.9976146 72.9856249,73.154572 72.8534903,73.3239862 C72.5867282,73.6752717 72.4720454,74.0340313 72.509442,74.4027564 C72.5468385,74.7689902 72.7313282,75.0804135 73.0629111,75.3345349 C73.2922767,75.5114233 73.5366009,75.6036046 73.7983768,75.6160615 C74.0576597,75.6310098 74.5089115,75.5238802 75.1546255,75.2971641 C75.6806705,75.1128015 76.052143,75.0231116 76.2640569,75.025603 C76.4759707,75.0305857 76.6679397,75.0978532 76.8399639,75.2298966 C77.0369192,75.3793798 77.151602,75.5687252 77.1815192,75.7979327 C77.2139296,76.0296316 77.151602,76.2438908 76.9995226,76.4407103 C76.8050605,76.6973231 76.5507638,76.8443149 76.2391258,76.8816857 C75.9249947,76.9215478 75.5659877,76.8468063 75.1496393,76.6624437 L74.9476979,76.8692287 L75.9449395,77.6365757 Z M79.425313,74.6917572 L79.1685232,74.4799894 C79.330575,74.2333422 79.4003819,74.0365227 79.3854233,73.8945136 C79.3654785,73.7525046 79.2383302,73.5830904 78.9915128,73.3812881 L76.6629535,71.4728863 C76.4186293,71.2735754 76.2266603,71.1813941 76.0870465,71.193851 C75.9424464,71.206308 75.765436,71.315929 75.5535222,71.522714 L75.2967324,71.3109462 L76.7776363,69.5021998 L77.0344261,69.7114763 C76.8723743,69.9655977 76.8000743,70.1599258 76.8150329,70.3019348 C76.8349777,70.438961 76.9646191,70.6108667 77.2064502,70.8076862 L79.5350095,72.716088 C79.7818269,72.9153989 79.976289,73.0100716 80.1183959,73.000106 C80.262996,72.9876491 80.4375133,72.8805195 80.6519202,72.671243 L80.9062168,72.8830109 L79.425313,74.6917572 Z M82.3048483,70.8923933 L83.6835349,69.0288365 L83.4167728,68.832017 C83.2397624,69.0412934 83.0802037,69.1558972 82.9356036,69.1708455 C82.7910036,69.1857938 82.5890622,69.0961039 82.3247931,68.9017758 L79.2483026,66.619666 L79.5649268,66.193639 C79.7394441,65.9594487 79.9264269,65.8049828 80.1283683,65.735224 C80.3278167,65.6654651 80.6145237,65.6554996 80.9884893,65.7078187 L81.1954169,65.4412404 L80.1134097,64.8831699 L77.3136537,68.6650941 L78.1887333,69.4997085 L78.3881816,69.2331301 C78.1987057,68.9316724 78.1039677,68.677551 78.0989815,68.4757487 C78.0989815,68.2739465 78.2086781,68.0223165 78.4330575,67.7233501 L78.7247507,67.3272197 L81.8037344,69.6043467 C82.0655103,69.7986748 82.2101103,69.9705804 82.2375345,70.122555 C82.2649586,70.2720382 82.2001379,70.4638749 82.0380861,70.6930824 L82.3048483,70.8923933 Z M85.3638871,65.471137 L85.0647146,65.3266366 C85.1569595,65.0650411 85.1769043,64.8682216 85.1245491,64.7287039 C85.0721939,64.5966605 84.9126353,64.4671084 84.6533524,64.3450305 L83.5962763,63.8442619 L81.6566412,64.0510469 L81.5519308,64.0610125 C80.8064927,64.1457196 80.3726926,64.3001855 80.2505304,64.5244103 L79.9713028,64.3923668 L80.9112031,62.4017493 L81.1904307,62.5337927 L81.1505411,62.6209913 C81.0832272,62.7580175 81.0582962,62.877604 81.0682686,62.9722767 C81.0807341,63.0669494 81.1305962,63.1367082 81.220348,63.1765704 C81.2627307,63.1989928 81.3325377,63.2114498 81.4222894,63.2214153 C81.5145343,63.2288895 81.6142584,63.2263981 81.7264481,63.2164325 L83.5164969,63.0619666 C83.4092934,62.9050093 83.2646934,62.6907501 83.0851899,62.4166976 C82.6464036,61.7589716 82.3671759,61.3952293 82.2450138,61.3404188 C82.1253448,61.2831169 82.010662,61.2856083 81.8959792,61.3503843 C81.7812964,61.4151603 81.6740929,61.5347469 81.5743688,61.7116353 L81.2976342,61.5820832 L82.1004137,59.8804665 L82.3821345,60.0100186 C82.3397518,60.17445 82.3397518,60.3388815 82.3746552,60.503313 C82.4095587,60.6677445 82.4843518,60.8396501 82.6015277,61.0289955 C82.6937725,61.1784787 82.8932209,61.4849192 83.2023658,61.9433342 C83.5115107,62.406732 83.7633142,62.7879141 83.9602695,63.0868805 L85.0198387,63.5876491 C85.2666561,63.7022528 85.4685975,63.7371323 85.6306493,63.6873045 C85.7951941,63.6399682 85.9273287,63.5004506 86.032039,63.2762258 L86.3312115,63.4182348 L85.3638871,65.471137 Z M12.2236898,23.9496952 C12.0342139,24.1265836 11.8547104,24.3981447 11.9020794,24.4404983 C12.2062381,24.6298436 12.4480692,24.1564803 12.8045831,23.9646435 C12.9840866,23.8076862 12.9267452,23.8251259 12.9990452,23.593427 C13.3156694,22.7089849 13.6098557,22.6317519 13.8541799,22.9207527 C14.0386696,23.593427 13.7494696,24.1664458 13.6946213,24.786801 C13.4552833,25.2252849 13.4602695,25.4520011 13.9065351,25.399682 C13.9738489,25.3922078 14.0660938,25.4071561 14.1558455,25.3847336 C14.5796732,25.3897164 14.7043285,25.1380864 14.669425,24.6846541 C14.6619457,24.5974556 14.6818905,24.490326 14.6594526,24.3856878 C14.6769043,24.2411874 14.9112561,24.1639544 14.9511458,24.5177312 L14.9860492,25.0907501 C14.9785699,25.4370527 15.075801,25.6612775 15.3076597,25.7210708 C15.3824528,25.7210708 15.4373011,25.7011397 15.4896563,25.6812086 C15.6192977,25.6363636 15.7638977,25.5391996 15.6043391,25.3747681 C15.5245597,25.2925523 15.5370252,25.1953883 15.5719287,25.1480519 C15.8087736,25.0135171 15.9409081,25.3299231 16.1453427,25.419613 L16.3123806,26.4585211 C16.3896669,26.7848927 16.7112773,26.864617 16.8658498,26.7201166 C16.9406429,26.657832 16.9506153,26.5332627 16.9132188,26.3738139 C16.8932739,26.1969255 16.5641842,25.9552611 16.6439635,25.7410019 C16.7237428,25.6114498 16.8683429,25.7335277 17.0652981,25.8655712 C17.2448016,25.9577525 17.374443,26.0275113 17.4866327,26.044951 C17.7135052,26.077339 17.8456397,25.9801749 17.8556121,25.7459846 C17.8630914,25.5915187 17.7957776,25.3672939 17.7384362,25.1331036 C17.7110121,25.0683276 17.4766603,24.8216804 17.0453533,24.5874901 C16.9356567,24.5252054 16.6963187,24.4953088 16.5093359,24.4355155 C16.2999151,24.3458256 16.1328771,24.0094885 16.0256737,23.6058839 C15.9409081,23.4688577 15.8960323,23.1325205 15.8386909,22.8210973 C15.7763633,22.509674 15.5843942,22.335277 15.3550286,22.6467002 C15.2403459,22.8161145 15.0209527,22.7214418 14.9835561,22.5021998 C14.8788457,22.1758283 14.9112561,21.6825338 14.6519733,21.5529817 C14.5273181,21.5455076 14.4699767,22.0089054 14.1807766,21.8768619 L13.9539041,21.7672409 C13.8043178,21.7124304 13.639773,22.5071826 13.3231487,22.2829579 C13.2383832,22.1658627 13.2358901,22.0537503 13.2483556,21.9441293 C13.2608211,21.8120859 13.2982177,21.690008 13.3555591,21.5928439 C13.400435,21.5230851 13.4752281,21.56793 13.5325695,21.5604559 C13.6372799,21.5380334 13.7270316,21.5704214 13.7993316,21.5181023 C13.9788351,21.3860588 14.0411627,21.0746356 13.951411,20.6909621 C13.9140144,20.4767029 13.9489179,20.3197456 13.9937938,20.167771 C14.023711,20.0631328 14.0411627,19.9460376 14.1059835,19.8563477 C14.2181731,19.7143387 14.2979525,19.8040286 14.5372905,19.4652001 C14.7342457,19.3505963 14.8339699,19.6620196 14.9785699,19.7641664 C15.5096011,20.3770474 16.105453,20.9002385 16.728729,21.3885502 C16.8907808,21.6576199 17.1201464,21.8444739 17.3869086,21.9715346 L17.6412052,22.1758283 C17.9179397,22.4972171 18.7780607,22.9008216 19.1320815,23.3492711 C19.3788988,23.6009011 19.6032782,23.7130135 19.8849989,23.9372383 C20.0246128,24.0941956 20.0869404,24.2810496 19.9124231,24.3707395 C19.5434437,24.4878346 19.1819436,24.6173867 19.0772332,25.0110257 C19.0872056,25.1879141 19.4038298,25.1904055 19.6531403,25.2053538 C20.0844473,25.1953883 20.4808508,25.2676385 20.8622958,25.3946992 C21.5080098,25.4594752 21.2437407,25.1904055 21.3858477,24.9362841 C21.512996,24.7170421 21.6077339,24.555102 21.3185338,24.3657567 C21.2138235,24.2959979 21.153989,24.2038166 21.0417993,24.1016698 C20.8747613,23.9496952 20.6429026,23.7728068 20.4284957,23.6133581 C20.1218438,23.3866419 19.7528644,23.154943 19.4387333,22.9332096 C19.097178,22.6940366 18.8129641,22.4723032 18.5661468,22.290432 C18.3567261,22.1384575 18.2096329,21.9939571 18.1248674,21.929181 C17.1076809,21.1817652 16.1204116,20.3969785 15.2503183,19.4652001 L14.6170698,18.6181288 C14.2680352,18.4686456 14.2032145,19.1089319 14.0885317,19.3381394 C13.9613834,19.7043732 13.6971144,19.9684601 13.7095799,20.4343493 L13.7270316,20.8778161 C13.8043178,21.4608004 13.3904626,21.2565068 13.233397,21.1543599 C13.1660832,21.109515 13.1237004,21.1169891 13.1062487,21.1767824 L12.7921175,23.1972966 C12.7522279,23.3268487 12.6998727,23.5386165 12.5477933,23.4887888 C12.3034691,23.1524516 12.2486208,23.67066 12.2236898,23.9496952 Z" id="Fill-7"></path>
                    <path d="M263.376131,37.184522 C263.152448,36.135954 264.749085,36.8115314 265.380026,37.7372671 C265.616051,38.0817965 265.526578,38.8996795 265.643819,39.2951394 C265.847448,39.9916881 265.754889,40.58338 265.727121,41.9165592 C265.700896,43.1838285 265.733292,44.4540936 264.846271,43.7171002 C264.472952,43.4070236 264.633387,42.4678064 264.477579,42.0633587 C263.838925,40.418605 263.613699,38.5491582 263.376131,37.184522 Z M266.544723,56.079716 C268.854062,55.034144 271.206594,53.4433167 273.610034,52.8875757 C275.339338,52.4876219 275.615472,51.5813596 276.598136,51.241324 C276.925177,51.1289774 277.25376,51.3806337 277.585429,51.3326992 C278.054393,51.2667892 278.379891,51.1259815 278.719272,51.1888956 C279.334787,51.3027401 280.042861,51.3611603 280.302025,52.2569369 C280.493313,52.9115429 281.148937,53.3789046 281.519172,53.8342827 C281.480606,54.4050032 281.147395,54.804957 280.880517,55.1479885 C280.369902,55.8025945 279.712735,56.1890667 279.098763,56.7223384 C278.99232,56.8062238 278.808746,57.2091735 278.995406,57.9207017 C279.265368,58.9632778 279.993497,60.5061706 280.163187,61.3600045 C280.377615,62.4370336 280.700028,62.6407553 280.786416,63.469124 C280.814183,63.7462455 280.730881,64.349921 280.465546,64.5626305 C280.410011,65.0689391 280.625981,65.4059787 280.493313,65.7744755 C280.152389,66.7151907 279.263826,67.3338458 278.566551,67.6379305 C278.287332,68.1247656 278.490961,68.3344792 278.207114,68.6160946 C277.670274,69.1508642 276.988425,69.2572189 276.311204,69.3006596 C275.712658,69.3396064 275.117198,69.3620757 274.628179,69.1418765 C273.966385,68.5861355 273.262939,68.0483699 272.736897,67.6169591 C272.141437,67.1271281 271.738807,66.772113 271.252874,66.6807378 C269.822842,66.213376 268.391268,66.5773789 266.96278,65.9976706 C266.631111,65.7115614 266.637282,65.2501915 269.233552,65.4554112 C269.759594,65.497354 269.930827,65.2247263 270.432187,65.0959022 C270.820933,64.9970373 271.545976,65.0494657 271.931637,64.9865516 C272.798603,64.8472418 273.719562,64.6195528 274.296511,64.0683057 C274.55876,63.8196453 274.847235,63.7132905 274.833351,63.0976314 C274.810211,62.0745286 275.134167,61.0843809 274.76856,59.7781649 C274.116022,59.3722193 273.839888,58.6352258 273.647058,58.0645053 C273.181179,57.5986416 272.682905,57.5417193 272.153778,57.8922406 L269.869122,59.6792999 C269.188815,60.1062169 268.506967,60.6754394 267.825118,61.1008584 C267.053796,61.5846976 266.353435,61.8588232 265.484926,61.965178 C265.353801,61.900766 264.799992,61.9876473 264.46061,61.8977701 C264.024042,61.7839255 263.749451,61.4693552 263.167874,61.1383073 C262.254629,60.6200151 261.302817,59.6298674 260.66262,59.056151 C260.042477,58.50041 259.735491,58.1483907 260.10264,57.6600577 C261.642199,56.8077217 261.051366,57.8368163 261.983123,57.7229717 C262.694283,57.6375884 263.368418,57.2091735 264.327943,56.8212033 C264.983567,56.5560654 265.90144,56.3703191 266.544723,56.079716 Z M280.581244,32.7206185 C281.961911,33.1520293 284.138582,32.3985584 284.752554,33.4651017 C284.678508,33.6987826 284.891392,34.1346873 284.8374,34.3803517 C284.783407,34.6260162 284.513445,34.6904283 284.447111,34.927105 C284.2188,35.7404941 284.049109,36.00713 283.958093,36.5793485 C283.934953,36.72465 283.862449,37.0961427 283.816169,37.2429422 C283.634137,37.3223338 283.296298,37.6279164 283.094212,37.7567405 C282.484867,38.1477065 281.699661,38.4727626 281.155108,38.7079414 C280.774075,38.8727163 280.676888,38.982067 280.24032,38.6495212 C279.806837,38.2420776 279.274624,37.5185657 278.801032,37.1320936 C278.477077,36.8684536 278.13461,37.0901509 278.049765,36.6976869 C277.951035,36.2483006 277.661018,36.2572883 277.838422,35.7404941 C278.057478,35.0993697 278.767094,34.7248812 279.074081,34.1271975 C279.436602,33.4186652 279.944132,32.5453579 280.581244,32.7206185 Z M267.735644,30.872143 C267.522759,32.21431 267.967041,33.554979 267.806606,34.9720436 C268.227748,36.3441697 268.056514,37.9514745 268.127476,39.7160645 C268.153701,40.3631807 268.565587,40.9039422 268.739906,41.43272 C268.861775,41.793727 268.733735,42.7883686 268.846348,42.9860985 C269.252064,43.688639 269.998704,43.2033019 270.318031,42.4228677 C270.415218,42.1891869 271.158772,41.9944528 271.305323,41.8761145 C272.641253,41.595997 273.451142,40.1100265 275.260664,39.6201955 C276.07518,39.1753031 276.994596,40.9264115 277.863105,40.5084823 C278.39686,40.1864221 278.429255,39.86586 278.929072,39.7490195 C279.404206,39.636673 279.871628,39.8029459 280.388414,40.0650879 C280.905199,40.3257319 281.472893,40.6837429 281.730514,41.4641771 C281.591676,42.6146059 280.32208,43.1239103 279.973442,43.9927237 C279.334787,44.1814659 278.773265,44.0361644 278.13461,44.2249066 C277.192054,44.5020281 276.007304,45.0248142 275.06012,45.324405 C273.841431,45.7108772 272.553323,46.1108309 271.359316,46.5257642 C270.978283,46.6590822 270.677467,46.8628039 270.299519,46.9781464 C268.419036,47.5533608 266.806972,47.9353391 264.878667,48.5030638 C264.020957,48.7292548 263.744823,49.2355634 264.078035,49.8706959 C264.452897,50.2796374 265.511151,51.6847184 266.331838,51.8390077 C267.456426,52.0487213 268.869488,50.8293866 269.995618,51.0405981 C272.608858,50.9297495 273.758128,48.5869492 275.586162,47.5099201 C275.834527,47.3616227 276.178537,47.4020674 276.456213,47.2732434 C277.076356,47.0380646 277.964919,46.7444656 278.61283,46.0224516 C279.928706,44.5574524 281.250752,43.8024835 282.012818,45.4966697 C282.106919,46.7849103 279.581611,47.0934889 279.751301,47.7600785 C280.00738,48.3337949 280.450119,48.1165916 281.329427,48.1555384 C282.267354,48.1974811 283.32098,48.5899451 284.200288,48.200477 C284.667709,47.9937593 285.26934,47.6417401 285.517706,47.3002066 C285.684312,47.0740155 285.533133,46.8238571 285.668885,46.7264901 C285.610265,46.4298952 285.369612,46.142288 285.266255,45.8741542 C285.039486,45.2869561 284.871338,44.7866394 284.501103,44.4630813 C284.265079,44.2548657 284.170978,43.8354385 283.995116,43.6137413 C283.365717,42.8183276 282.861272,42.3359864 282.852017,42.0438853 C282.845846,41.8326738 282.896753,41.6199643 283.248476,41.5091157 C284.112357,41.236488 285.398922,42.2670805 285.229232,40.8979504 C285.113533,39.9662229 284.349924,39.2262335 283.910271,38.3903751 C285.446744,37.1066283 286.770333,35.5247887 288.201907,33.6059094 C289.047276,32.6457208 289.864878,31.9746373 289.983662,31.3559822 C290.060794,30.9575264 289.850994,30.8316983 289.64428,30.5291115 C289.41134,30.187578 289.158347,29.6842654 288.923865,29.500017 C288.464157,29.140508 288.283667,28.9412801 287.469151,29.0596185 C286.73331,29.1674712 285.983585,29.8625219 285.258542,30.2370105 C284.903734,30.4212588 284.448654,30.4242547 284.109272,30.5665604 C283.439764,30.8466778 282.915265,31.2241623 282.364541,31.4878022 C281.941856,31.4009209 281.472893,31.0279303 281.372621,30.5725522 C281.289318,30.1920718 281.486776,29.9314278 281.539226,29.5509475 C281.60556,29.0641123 281.537684,28.4948898 281.415815,28.454445 C281.079518,27.9091897 280.244948,28.6401913 279.646402,27.4058771 L279.550758,26.361803 C279.772898,25.6263075 279.894767,24.8219061 279.592409,24.2901324 C279.290051,23.7583586 278.56038,23.4977146 278.026625,23.1322138 C277.529894,22.7936761 276.979169,22.0446991 276.502492,22.1900006 C276.013474,22.3382981 276.39605,23.8617175 276.12763,24.7065636 C275.823729,25.6637564 275.11257,26.6494102 274.416837,27.7294352 C274.131448,27.7384229 273.856857,27.6725129 273.64243,27.6829986 C271.957862,27.766884 272.366663,27.9840874 273.443429,28.9307944 C274.495512,29.8580281 274.42455,29.7277061 273.702593,30.9575264 C273.56684,31.1867134 273.358583,31.5297449 273.247513,31.7214831 C272.886534,32.3491259 272.690618,32.7191206 273.104047,32.7236144 C273.355498,32.7266103 273.534445,32.6007822 274.375186,32.1723673 C274.927452,31.8922498 275.322369,31.4054147 275.873093,31.1252973 C276.008846,31.0563914 276.039699,30.8152208 276.129172,30.7627924 C276.399135,30.6070052 276.581167,30.7178538 276.755486,30.8107269 C276.977627,30.9290653 277.471273,31.2091827 277.549948,31.559704 C277.614739,31.8518051 277.466645,32.1678734 277.346319,32.5049131 C277.229078,32.8329651 277.144232,33.1715027 276.957572,33.4546161 C276.323546,34.4222945 275.820644,35.5292826 275.191245,36.6138014 C273.505134,37.5125739 273.719562,35.351026 272.596517,36.3142106 C272.562579,36.8190211 273.896966,37.6803448 273.995695,38.5940969 C273.185807,40.1534672 271.623108,41.7712577 271.041531,41.533083 C270.831732,41.4956341 270.57411,41.3757978 270.475381,41.0627253 C270.240899,40.321238 270.290263,38.9655895 269.609957,38.4457994 C269.45415,36.2483006 269.157962,36.0460768 268.99907,34.8312359 C268.850976,33.6897949 268.888,32.8284712 268.650432,31.624116 C268.371214,30.939551 268.041088,30.6369642 267.735644,30.872143 Z M241.415046,52.9909345 C240.872035,53.1272483 241.256154,53.5257041 241.987367,54.9757238 C242.235733,55.4086325 242.28664,55.852027 242.462502,56.3029112 C242.990086,57.6540659 243.401972,59.0741264 243.747524,60.4851993 C244.10696,61.9501984 244.514219,63.3807447 244.471025,64.9131518 C244.449428,65.659133 244.204147,66.2583147 245.828552,66.3856408 C246.516571,66.4395671 246.828185,65.8793323 247.52546,65.3475585 C247.866385,65.0869145 248.304496,65.2456976 248.741064,65.0225025 C249.177633,64.7978093 249.612658,64.18964 249.948955,64.0443384 C250.40095,63.7492414 250.610749,63.8166494 250.768099,63.4975851 C251.084341,62.8549628 250.709478,61.9262312 250.286794,61.049928 C249.958211,60.3683588 249.674364,59.7631853 249.173005,59.0621428 C248.879902,58.6517033 248.312209,58.7340908 248.014479,58.3341371 C247.085807,57.0878392 246.531997,56.112671 245.462945,55.4415875 C245.214579,55.296286 244.862856,55.2378658 244.577467,55.0041849 C243.452879,54.084441 242.897527,52.6044623 241.415046,52.9909345 Z M237.583117,31.3814475 C237.809886,31.757434 237.464334,32.3685993 237.313155,33.2359147 C237.232937,33.7017785 237.442737,34.3878415 237.323953,34.8716807 C237.1882,35.4319156 236.72695,35.9382241 236.456987,36.3576513 C236.131489,36.8624618 235.978767,37.2414442 235.625502,37.4361783 C235.707262,37.8870625 235.691835,38.4547871 235.622416,39.0075322 C235.549912,39.5842446 235.471237,40.3317237 235.642471,40.7286816 C235.745828,40.9668563 235.940201,40.9593665 236.281126,41.0477458 C236.842648,40.7122041 237.373318,40.7376693 237.885476,40.4410744 C238.857342,39.8778436 239.997356,39.3445719 240.936826,38.718427 C241.402705,38.4083505 241.378023,38.0698129 241.806878,37.7327732 C242.138546,37.4706312 242.914496,37.2084892 243.326382,36.9628247 C243.369576,36.4400387 243.715129,36.2393129 243.753695,35.8977793 C243.801517,35.4903358 243.534639,35.1023657 243.590175,34.8791705 C243.676563,34.5286492 243.853967,34.5601062 244.1301,34.633506 C244.486451,34.7293751 245.01095,34.9960109 245.725194,35.6566087 C246.312942,36.201864 246.6153,36.3576513 245.831637,36.5254221 C245.160587,36.6692257 244.591351,37.2399463 244.043712,37.6054471 C243.617942,37.8900584 243.187544,37.9320011 242.831194,38.3169753 C242.649162,38.8247818 241.973483,39.0614586 241.701978,39.4674041 C241.307061,40.059096 241.21296,40.6447961 240.887462,40.9593665 C240.475576,41.3817896 239.892456,41.563042 239.300081,42.0109303 C238.538014,42.5861447 237.732754,43.427995 236.987657,43.9717524 C236.17314,44.6548195 235.818332,45.8022524 235.497462,46.5287602 C235.085576,47.4634836 234.753908,47.9772818 233.837577,48.7711976 C233.735762,49.0857679 233.152643,49.3733751 233.026146,49.6460028 C232.743842,50.2571681 232.945928,50.7979296 232.793207,51.4195806 C232.702191,51.7925711 232.262537,52.1955208 232.13604,52.6598866 C231.909271,53.4897532 232.065078,55.0895683 231.821341,55.8445372 C231.364718,57.2511162 231.102468,58.696642 230.338859,59.577439 C229.786593,60.0088498 228.862549,60.1137066 228.231607,60.5061706 C227.179524,61.1592786 226.391232,62.0730307 225.467188,62.6916858 C224.890239,63.07666 224.717463,63.5754787 224.229988,63.8361228 C223.742512,64.0967668 222.938794,64.1207341 222.343334,64.1521911 C221.505678,64.2435663 220.675735,64.7408871 219.481728,64.5836019 C218.574653,64.4652635 217.635183,64.8786989 216.715767,65.1273593 C216.086368,65.298126 215.467768,65.2921342 214.876935,65.3805135 C212.502805,65.7355287 210.606895,66.7691171 210.167242,65.8134223 C211.24555,65.1483306 212.362424,64.7094301 213.440733,64.1836481 C214.488188,63.6713478 215.183921,63.0556886 216.225206,62.4849681 C218.145798,61.4334043 220.4104,60.2664979 222.343334,58.2847046 C223.307486,57.0159374 224.427446,56.6489386 225.391599,55.3801714 C226.236968,54.2701874 226.855568,53.9601108 227.611464,51.9843093 C227.719449,51.7026939 227.906109,51.6442737 228.01718,51.274279 C227.77807,50.0429607 227.077709,49.9366059 226.607203,50.1672909 C223.335254,52.3812671 220.714301,52.5325605 218.59625,54.9083158 C215.964499,57.9087181 212.291463,52.6568907 210.816695,52.1326067 C210.196552,51.5783637 210.404809,50.7350155 210.702539,50.326074 C211.136022,49.7283903 212.137198,49.4153179 213.061242,49.7643412 L214.509785,49.8467287 C215.068223,49.672966 215.523303,49.2445511 216.037003,49.08427 C218.263039,48.3847254 220.228368,48.0132327 222.562389,46.9976198 C224.345686,46.2216795 226.79232,44.8525494 228.628067,44.1769721 C228.931968,43.9642626 229.249752,42.8527806 229.59839,41.4087528 C230.493124,37.7118018 231.088585,34.5795796 230.272526,31.5252511 C230.00102,30.5081402 229.468808,29.7321999 228.876433,28.6356975 C228.432151,27.245596 229.015271,26.820177 229.684778,26.4906271 C230.141401,26.2659339 230.346573,25.7356582 230.889583,25.9124168 C231.682503,26.1685669 232.472337,26.983454 233.351644,27.6755088 C234.10754,28.2701966 234.897374,28.7046033 235.586936,29.2932993 C236.595825,30.153125 237.396457,31.2391418 237.583117,31.3814475 Z M131.702178,34.3608783 C132.131033,34.2320543 132.217421,34.8971459 131.72686,34.9750395 C130.398643,35.1008677 128.618432,36.3936022 127.894932,36.5104426 C127.881048,36.1928763 130.762708,34.8686848 131.702178,34.3608783 Z M147.731796,20.019465 C147.966278,19.8097514 150.093584,21.325681 149.414821,23.0678018 C150.007196,24.0279904 149.308378,24.6256741 151.779695,25.6083321 C151.909277,26.4486843 150.753836,26.0637101 150.300299,26.3378357 C148.538599,27.0958006 146.775356,26.5385616 145.033711,27.864251 C143.981627,28.6656565 142.70586,28.9502678 141.440892,29.9059626 C138.77983,31.3874393 136.911688,33.3662368 134.648629,35.0978718 C133.929756,35.5667315 133.749267,35.1503002 134.105618,34.7338689 C134.804436,33.357249 136.297716,32.9812625 136.808331,32.0135841 C137.973027,30.7478128 139.072933,29.3517196 140.186722,28.0470015 C142.634899,25.1799172 145.05685,22.4146937 147.731796,20.019465 Z M129.377413,23.2250869 C130.742653,22.9449695 131.136027,23.6400203 131.476952,24.3230874 C131.618875,24.6047028 131.660527,25.1095133 132.143374,24.9042936 C133.230939,25.3461901 134.009974,26.0502285 134.105618,27.3279835 C135.321222,28.9203087 135.751619,29.9703746 134.716505,30.2759573 C134.076308,30.5201238 133.823314,31.2451336 133.440738,31.7199851 C132.84682,32.5228886 132.252902,32.93183 131.725318,32.4479908 C131.467696,32.0585228 130.781219,32.6517126 130.30917,32.8284712 C129.07814,34.0987364 127.435224,34.5136697 125.530058,36.1823906 C124.369989,36.4340469 124.609099,34.9720436 122.08379,32.5228886 C121.563919,32.018078 121.289328,31.9072294 121.924898,31.5896631 C122.754841,31.1762277 123.675799,31.3065498 124.598301,30.7942494 C125.383507,30.3583448 126.372342,29.8145874 127.213083,29.3562134 C127.793117,29.0401451 128.400919,28.7750072 128.980953,28.3510862 C129.246288,28.159348 129.513166,27.8582592 129.7785,27.6410559 C129.838664,27.0778251 129.519336,26.59099 129.506995,26.1296201 C129.477685,24.9297588 128.902278,24.1268554 129.377413,23.2250869 Z M118.958393,61.1173359 C117.358671,60.6095295 118.083713,58.9348167 118.821097,57.1897001 C119.293147,56.0707283 119.649497,54.706092 119.80839,54.3166239 C121.241506,53.8133113 120.527262,50.9327454 122.338327,49.2415552 C123.054114,48.8430994 123.305565,49.671468 123.09268,50.0519484 C122.420087,52.3108633 122.589778,54.5682802 122.338327,56.8271951 L123.200665,60.0717639 C123.3611,65.4988519 120.568914,62.6931837 118.958393,61.1173359 Z M142.715116,55.9943326 C142.605588,55.9943326 142.932629,55.4985098 143.369197,55.7112193 C143.659215,55.8535249 143.915294,55.9224308 144.097326,56.1006874 C144.532351,56.5246084 145.087703,56.9904722 145.370007,57.4113973 L147.503484,60.6035376 C147.896859,61.1922336 148.270179,63.2878715 147.870634,63.6773396 C147.216552,64.3154681 147.077714,65.301122 145.53507,65.3835094 C144.518467,65.4389337 143.815022,65.3415667 143.815022,64.2765213 C143.815022,63.6383928 143.338345,62.9253666 143.383081,62.3771154 C143.538888,60.4462525 142.715116,57.5552009 142.715116,55.9943326 Z M128.376237,38.230094 C127.115896,38.0308661 125.486864,38.1237392 125.463724,38.4413055 C125.634958,40.1504712 128.2266,39.6980891 130.07006,40.4935028 C131.21933,40.7256857 130.98022,40.5609107 132.117149,40.157961 C136.564593,38.7783452 137.747801,39.6816116 137.352884,41.4731648 C135.251803,44.148511 132.115607,44.702754 129.497739,46.3190466 C127.052648,46.6815515 126.181054,47.3616227 127.726783,48.9284827 C127.964351,49.1681554 128.178778,49.5591215 128.536672,49.834745 C129.793927,51.469013 131.165338,51.2188547 132.843735,49.7478637 C133.172318,49.4587585 133.644367,49.2280736 133.985292,48.8460953 C134.616233,48.4850883 135.628208,49.1531759 134.34627,50.3425515 L132.192739,52.1475863 C130.818243,53.1407299 130.218154,54.1668285 130.688661,55.2318739 C130.913887,55.523975 131.16688,55.6692766 131.392106,55.817574 C131.956714,56.1860708 132.780486,56.440723 132.953263,55.3502123 C133.038108,54.8184386 133.431482,54.5622884 133.740011,54.5607905 C134.977212,55.0850744 134.133386,56.5231104 134.391007,57.552205 L130.81053,61.2431641 C129.756903,62.486466 130.401729,63.9544611 131.427587,64.1357136 C131.927404,64.2225949 132.438019,63.9050287 132.967146,63.2983572 C133.576491,62.7081633 133.562607,60.7248719 134.634745,60.4117995 C135.382927,60.3413957 135.33202,61.2431641 135.409152,62.389099 C135.578843,63.3537815 135.706883,64.056322 135.978388,64.5296755 C136.53374,65.5003499 137.325117,65.7145573 138.267672,65.0794247 C138.897071,64.6540057 139.594347,63.7402537 140.331731,62.8250037 C140.502964,62.5358985 140.763671,60.9031285 140.398064,58.5723118 C140.305506,57.976126 139.691533,56.9545213 139.378376,56.0647365 C139.097615,55.0101767 139.916759,53.3804026 141.186356,51.7925711 C141.470202,51.0630675 142.673465,49.9081448 143.710122,48.7726955 C144.754492,47.6282585 144.879446,46.3744709 142.937257,46.4134177 C141.932995,46.467344 141.647606,45.3453763 142.40813,44.5559545 C143.384624,43.2107916 145.414744,41.8866001 145.130897,40.5219639 C144.78843,40.0111615 142.790706,41.1466108 142.448239,39.6531505 L142.204501,38.4682687 C141.962306,37.7357691 138.332464,39.4329512 138.256874,37.5575126 C138.466674,36.8909229 138.90787,36.5583771 139.383004,36.2737658 C139.92293,35.9532036 140.518391,35.7225187 141.084541,35.6596046 C141.490257,35.6206578 141.530365,36.0445788 141.758677,36.2468026 C142.152051,36.594328 142.289346,37.0362245 142.70586,37.1545629 C143.774913,37.4586476 145.194146,36.7740825 146.435974,35.3030915 C147.16873,34.5406328 147.882975,34.2185727 148.620359,33.9339614 C149.124804,33.7377294 149.640047,33.4651017 150.17843,33.4606079 C151.085505,33.4531181 150.966721,34.043312 153.029236,33.9579287 C154.075149,34.372862 153.137222,35.6715882 153.191214,36.528418 C152.362814,40.3511971 152.10365,44.1724782 152.052743,47.9952573 C151.480422,49.4063301 151.426429,50.815905 151.727245,52.2269779 L151.708733,53.7998297 C151.272165,55.7951047 152.254829,60.2724898 151.563724,62.9433421 C151.318444,64.6195528 151.545213,65.8029366 151.518988,67.5510491 C151.329242,68.536703 150.763092,69.3455982 149.894583,68.9141874 C148.314915,67.8551338 146.724449,66.8530025 144.848593,67.6094693 C144.172915,68.142741 145.126269,69.3740594 145.814289,70.3836805 C147.142506,72.0074628 148.06655,73.7435917 148.716003,75.5561163 C150.399028,78.214985 150.661277,76.4249297 152.092851,76.2331916 C153.337765,76.0669187 154.281864,75.9545721 154.149196,74.2933409 C154.101374,73.6896654 154.289577,73.2058262 154.354368,72.4628409 C154.448469,71.3768241 154.443841,69.9642533 154.42533,68.7014779 C154.397562,66.8440148 154.203189,64.7543687 154.124514,62.8864198 C154.041211,60.8986346 154.070521,59.1460282 154.036583,57.6690454 C154.00573,56.4152577 154.132227,55.4415875 154.127599,54.9158056 C154.014986,48.8386055 154.130685,42.7629033 155.185853,36.6872012 L156.609714,31.7828992 C156.122238,30.0033296 153.425696,31.6360997 152.174611,31.8622908 C150.357376,32.4554806 148.518544,32.2053223 146.721364,33.6418603 L145.029083,35.0020027 C142.949598,36.9897879 142.502231,34.8012769 142.448239,33.9189819 C142.423556,33.5325097 142.260036,33.3887061 141.960763,33.4845751 L133.048907,38.1896492 C132.424136,38.4278239 131.432215,38.8532429 131.176136,38.1102577 C131.75,36.2168436 129.539391,37.511076 128.376237,38.230094 Z M162.235738,43.591272 C163.904879,42.7389361 165.196073,45.845693 167.000967,45.4427434 C167.505411,45.3288989 168.18109,44.866031 168.744155,44.0676214 C169.426004,42.0828321 170.365474,41.3847855 171.371278,41.1361251 C172.50975,40.8530118 173.699128,41.170578 174.080162,41.2889164 C176.776704,41.5405727 175.229432,43.1733428 175.803295,44.115556 C175.55493,45.2719766 176.264546,46.1857286 177.580422,45.2135564 L180.648741,42.7539156 C181.56353,41.8656288 181.034402,40.1130224 183.394648,40.0860592 C184.068784,40.1010388 184.543918,40.4395764 185.056076,40.5983595 C186.185292,40.9488808 187.055343,40.9683542 186.503077,42.5067532 C186.388921,42.8228215 186.700535,43.2182814 187.022948,43.6122434 C187.437919,44.1185519 187.963961,44.5859136 188.638097,44.4900445 C189.349256,44.3881836 189.825933,43.5762925 190.333463,43.0415228 C190.680558,42.674524 191.166491,42.512745 191.254421,42.4932716 C191.465764,41.5196014 192.110589,40.7661304 192.702965,40.0680838 C193.380185,39.2711721 194.157678,38.8472511 195.043156,38.3379467 C195.505949,38.0713108 195.999596,37.5500228 196.522552,37.4346803 C197.320099,37.2594197 198.296593,37.4736271 199.115737,37.575488 C199.137334,37.6204266 199.160474,37.6638673 199.186699,37.707308 C199.96882,39.046479 202.253476,39.244209 201.557743,40.9728481 C201.286238,41.7847393 200.335969,42.9141967 199.41501,43.7245899 C199.080256,44.2084291 199.149675,44.6772888 199.063287,45.1341648 C198.873542,46.1437859 198.838061,47.1084684 198.509478,48.1150936 C198.281167,50.2511763 199.377987,52.417218 197.824544,54.5263375 C197.900133,54.7435409 197.668737,55.0221604 197.807575,55.1944251 C199.51991,57.3364996 199.185156,60.626007 197.392603,61.2221927 C195.866928,61.2746211 195.049327,64.0593179 192.81712,63.1051211 C192.218574,62.9987664 191.840626,62.0655409 191.268305,61.5367631 C190.621937,60.9375814 189.82439,60.7323617 190.017221,60.5945499 C189.734917,59.7212426 191.545981,59.2209259 191.470392,57.454838 C191.647796,56.2175278 191.646253,54.9802176 191.823657,53.7429075 C192.002604,52.5070953 192.358955,51.2697851 192.537902,50.030977 C192.642801,49.4572606 192.480824,48.8251239 192.585724,48.2514075 C192.678282,47.743601 193.154959,47.2372925 193.247518,46.730984 C193.596156,45.9490519 194.39216,44.9154635 194.449238,43.9103362 C194.500145,43.0280412 194.210128,42.5561857 193.634722,42.5022593 C193.187355,42.4588186 192.568754,42.5546877 191.80206,43.6362106 C190.942807,44.6503256 190.791628,45.6644406 190.285641,46.6785556 L191.416399,48.4566272 C191.226654,48.8790503 191.255964,49.4662483 191.112498,49.9261202 C190.950521,50.4474083 190.612681,50.8278887 190.393626,51.0600715 C189.813592,51.6787266 189.202704,51.4615233 188.545538,51.1589365 C185.989376,49.9815445 185.924585,48.2064688 187.169499,46.0239496 C187.397811,44.997851 186.447542,45.0922221 185.938469,45.4457393 C185.625312,46.173745 185.01751,46.6725638 184.704353,47.4005695 C184.348003,48.2259422 184.611795,49.2535388 183.933031,50.0789116 C183.538114,50.6391464 183.669239,51.5079598 183.635301,52.6718702 C183.612161,53.4687819 183.848186,54.3495789 183.713976,55.2004169 C183.59365,55.9583817 183.882124,56.506633 183.038298,57.550707 C182.101912,58.7086256 182.01861,59.7482058 181.133132,59.8096219 C180.687308,59.9264623 180.209088,59.7916465 179.832683,59.7646833 C177.969168,59.6328633 178.300837,58.7715397 178.436589,55.7816231 C178.402651,54.7120838 178.654102,54.0484901 178.904011,53.0883015 C179.224881,51.8524893 179.62134,50.3470454 180.213716,49.2325674 C180.730502,48.266387 181.509537,47.4410142 181.887485,46.4164136 C181.835035,45.8367053 181.194838,45.7663015 180.671881,46.0329373 C179.548836,47.023085 179.044391,49.0782782 178.01082,49.6085539 C175.628977,50.0100057 175.744675,48.2244443 174.99495,50.4444124 C174.933244,51.9468604 174.44114,53.3085008 174.103301,54.5592925 C173.503213,56.7867504 172.818279,58.533365 171.818645,59.1819791 C171.540969,59.6478429 171.295689,60.2395348 170.902314,60.525644 C170.288342,60.9705364 169.483081,61.0019935 168.927729,61.1892377 C167.753777,61.5831997 166.971656,61.572714 166.669298,61.473849 C165.334911,60.6739415 164.8968,59.969903 164.640721,59.1310487 C164.486456,58.6262381 164.28437,58.073493 164.310595,57.421883 C164.50034,56.9590151 164.671574,56.66991 165.287089,56.5156207 C167.409767,55.9838469 168.443339,54.1473551 169.503136,52.6943396 C170.354675,50.947725 171.382077,49.3179508 171.172277,46.9391996 C170.860663,44.4286284 169.723734,44.4795588 168.91076,44.8465576 L167.457589,46.0509128 C167.206138,46.6845474 166.960858,47.4365204 166.90378,48.1735138 C166.809679,49.4018363 166.977827,50.5897139 166.596794,51.1259815 C166.266668,51.4180826 165.779192,51.5259353 165.435183,51.7566202 C164.864404,52.1415945 164.432464,52.5670135 163.889453,52.5340585 C163.368039,52.5026014 162.879021,52.059207 162.457879,51.6277962 C161.879387,51.0361043 161.365687,50.1583031 161.212965,48.5090556 C161.078755,46.7100126 162.241909,46.5212704 162.817315,45.5266288 C162.879021,44.8240883 161.879387,44.2653514 162.235738,43.591272 Z" id="Fill-8"></path>
                </g>
                <text id="财务处" font-family="STSongti-SC-Black, Songti SC" font-size="38" font-weight="700" fill="#FFFFFF">
                    <tspan x="329" y="61">财务处</tspan>
                </text>
            </g>
        </g>
    </g>
</svg>