<?xml version="1.0" encoding="UTF-8"?>
<svg width="14px" height="14px" viewBox="0 0 14 14" version="1.1" xmlns="http://www.w3.org/2000/svg" xmlns:xlink="http://www.w3.org/1999/xlink">
    <!-- Generator: Sketch 52.3 (67297) - http://www.bohemiancoding.com/sketch -->
    <title>首页</title>
    <desc>Created with Sketch.</desc>
    <g id="Page-1" stroke="none" stroke-width="1" fill="none" fill-rule="evenodd">
        <g id="兰州大学财务处2" transform="translate(-1487.000000, -28.000000)" fill="#FFFFFF">
            <path d="M1496.29504,33.2183646 C1496.04001,32.9759623 1495.81138,32.7578685 1495.60792,32.5640287 L1495.07983,32.0753412 C1494.94101,31.9460873 1494.85821,31.8673099 1494.82994,31.8390638 C1494.57094,31.5967162 1494.27964,31.4836224 1493.95554,31.4978138 C1493.63192,31.5119779 1493.35428,31.6250717 1493.12254,31.8390638 C1493.08568,31.8754037 1492.99531,31.9622201 1492.85192,32.0954935 C1492.67522,32.262017 1492.49699,32.4269545 1492.31729,32.5902513 C1492.10475,32.7861967 1491.86847,33.0022396 1491.60947,33.2384896 C1491.3505,33.4768178 1491.09101,33.7150912 1490.83201,33.9574115 C1490.21204,34.5228529 1489.5224,35.154931 1488.76362,35.8516224 L1488.76362,41.2555678 C1488.76362,41.4777357 1488.84237,41.6493724 1488.99937,41.7705053 C1489.1569,41.8916928 1489.36994,41.9522865 1489.63804,41.9522865 L1492.37335,41.9522865 C1492.37132,41.9219896 1492.36982,41.8936888 1492.36982,41.8634467 L1492.36982,39.4866185 C1492.36982,38.7354037 1492.97666,38.125556 1493.72484,38.125556 L1494.22668,38.125556 C1494.97538,38.125556 1495.5817,38.7354037 1495.5817,39.4866185 L1495.5817,41.863474 C1495.5817,41.8937435 1495.58071,41.9220443 1495.57869,41.9523412 L1498.31451,41.9523412 C1498.57392,41.942224 1498.77993,41.8594545 1498.93237,41.6999037 C1499.08539,41.5424037 1499.16162,41.3606498 1499.16162,41.1566928 L1499.16162,35.8799232 C1498.46788,35.2339271 1497.77371,34.5883685 1497.0791,33.9433021 C1496.81047,33.7009818 1496.54947,33.4606849 1496.29504,33.2183646 Z M1500.93812,34.4724037 C1500.92912,34.2502631 1500.82713,34.0443099 1500.63326,33.8584818 L1500.28592,33.5111342 C1500.11026,33.3334271 1499.89266,33.1234271 1499.63363,32.8770599 C1499.37411,32.6306928 1499.08996,32.3540287 1498.7799,32.0470951 C1498.46988,31.7401615 1498.15288,31.4331185 1497.82878,31.1201967 C1497.50467,30.8091888 1497.18557,30.5001498 1496.87106,30.1952123 C1496.58691,29.9181654 1496.30231,29.6415013 1496.01737,29.3652474 C1495.76293,29.1189076 1495.54735,28.9109037 1495.37167,28.7372162 C1495.19599,28.5656342 1495.07986,28.4565326 1495.02432,28.4101303 C1494.73757,28.1314428 1494.39074,27.9941224 1493.98329,28.0001928 C1493.57642,28.0041849 1493.19675,28.1778724 1492.84535,28.5211459 C1492.79892,28.5676576 1492.63431,28.7231615 1492.3521,28.989681 C1492.01372,29.3067592 1491.67597,29.6244935 1491.33888,29.9429115 C1490.94562,30.314431 1490.51949,30.7142787 1490.06162,31.1423724 C1489.6037,31.5684974 1489.1756,31.9683451 1488.77726,32.3399467 C1488.37944,32.7114388 1488.03715,33.0325638 1487.75039,33.3011342 C1487.46315,33.5717279 1487.29197,33.7333021 1487.23647,33.789849 C1487.08854,33.9291654 1487.00979,34.1169623 1487.00071,34.3532396 C1486.99111,34.5915404 1487.07897,34.793474 1487.26425,34.9590678 C1487.43083,35.108474 1487.62978,35.1791849 1487.86149,35.1690951 C1488.09271,35.1590053 1488.2775,35.0984115 1488.41684,34.9873412 C1488.46278,34.950974 1488.59909,34.8277904 1488.82626,34.6177904 C1489.05294,34.4097865 1489.32353,34.157349 1489.63807,33.8584818 C1489.97926,33.5367279 1490.32172,33.2163138 1490.66546,32.8972943 C1491.03599,32.5539388 1491.38738,32.2247474 1491.7206,31.907724 C1492.05381,31.5926967 1492.34764,31.3160326 1492.60208,31.0797553 C1492.85651,30.8414818 1493.03017,30.6819857 1493.12256,30.5991615 C1493.40021,30.346724 1493.68246,30.2174701 1493.9697,30.2073803 C1494.25648,30.1992865 1494.54827,30.3285404 1494.84413,30.5991615 C1494.90877,30.6536576 1495.0617,30.7990717 1495.30252,31.0313295 C1495.54284,31.2635053 1495.82957,31.5362045 1496.16281,31.8532006 C1496.49599,32.1682279 1496.84982,32.5055131 1497.22506,32.8629506 C1497.59967,33.2203607 1497.9515,33.5555678 1498.28017,33.8666029 C1498.60827,34.177556 1498.89103,34.4441576 1499.12679,34.6682943 C1499.36304,34.8904349 1499.50388,35.0196615 1499.55031,35.0580248 C1499.68914,35.1791849 1499.87401,35.2438256 1500.10569,35.251892 C1500.33697,35.2620092 1500.54038,35.1872787 1500.71655,35.0297513 C1500.87353,34.8803178 1500.94769,34.6945717 1500.93812,34.4724037 Z" id="首页"></path>
        </g>
    </g>
</svg>