<?xml version="1.0" encoding="UTF-8"?>
<svg width="16px" height="16px" viewBox="0 0 16 16" version="1.1" xmlns="http://www.w3.org/2000/svg" xmlns:xlink="http://www.w3.org/1999/xlink">
    <!-- Generator: Sketch 52.3 (67297) - http://www.bohemiancoding.com/sketch -->
    <title>Fill 1</title>
    <desc>Created with Sketch.</desc>
    <g id="Page-1" stroke="none" stroke-width="1" fill="none" fill-rule="evenodd">
        <g id="兰州大学财务处2" transform="translate(-1538.000000, -68.000000)" fill="#FFFFFF">
            <path d="M1545.40402,81.0113957 C1548.5495,81.0113957 1551.09947,78.4785001 1551.09947,75.3539871 C1551.09947,72.2295777 1548.5495,69.6966613 1545.40402,69.6966613 C1542.25849,69.6966613 1539.70851,72.2295777 1539.70851,75.3539871 C1539.70851,78.4785001 1542.25849,81.0113957 1545.40402,81.0113957 Z M1551.15984,79.9794837 L1553.83325,82.635008 C1554.05558,82.8559426 1554.05558,83.2140497 1553.83325,83.4349843 L1553.43003,83.8343612 C1553.20761,84.0552129 1552.84709,84.0552129 1552.62467,83.8343612 L1549.93985,81.167525 C1546.8392,83.5545881 1542.40236,83.1251911 1539.82395,80.1884434 C1537.24555,77.2516958 1537.42073,72.8270582 1540.22318,70.1004098 C1543.02572,67.3738442 1547.48275,67.2916981 1550.38519,69.9131416 C1553.28762,72.5345851 1553.62784,76.9497546 1551.16098,79.9794837 L1551.15984,79.9794837 Z" id="Fill-1"></path>
        </g>
    </g>
</svg>